<?xml version="1.0"?><svg version="1.2" baseProfile="tiny-ps" viewBox="0 0 300 300" xmlns="http://www.w3.org/2000/svg" xmlns:xlink="http://www.w3.org/1999/xlink"><title>mailether.com</title><g><g fill="#a6d179" transform="matrix(.1 0 0 -.1 0 300)"><path d="M1348 2465c-444-70-782-425-827-870l-9-90 9-90c10-108 29-183 73-292l34-82 45-68c64-96 130-167 216-235l74-59 88-45 88-44 88-26 88-26 130-5 130-5 88 16c49 9 126 30 171 47l83 30 79 48c151 93 284 239 363 396l40 80 25 88c14 48 30 126 36 173l11 86-10 92c-13 108-30 178-71 284l-30 79-59 89-59 89-73 71c-166 159-349 245-579 274-103 12-131 12-242-5z"/></g><g fill="#c26302" transform="matrix(.1 0 0 -.1 0 300)"><path d="m1415 2265-40-24-200-1H974l-22-16c-12-8-29-28-37-44l-15-29v-258l-52-39-53-39-17-35-18-35V925l20-42 19-43 33-20 33-20h1252l34 23 34 22 18 35 17 35-2 432-3 431-25 27c-14 15-44 40-67 56l-42 29-3 146-3 146-33 29-32 29h-203l-202 1-40 24-40 25h-70l-40-25z"/></g><g fill="#7c4207" transform="matrix(.1 0 0 -.1 0 300)"><path d="m1179 2240-216-5-17-14c-10-8-24-27-32-42l-14-28v-588l271-196 271-197h96l73 53c41 29 163 117 272 196l197 143v593l-13 24c-6 13-23 32-37 42l-25 17-305 4c-168 2-402 1-521-2zm-252-767c-4-3-7-12-7-20v-13l121-90 121-91 12 4c6 2 12 11 14 20l3 16-122 91c-123 91-130 95-142 83zm1180-9c-4-4-7-20-7-36v-28h41l-3 32-3 31-11 4c-5 2-13 0-17-3zm0-101c-4-3-7-78-7-165v-158h40v330h-13c-8 0-17-3-20-7z"/></g><g fill="#014ed4" transform="matrix(.1 0 0 -.1 0 300)"><path d="M974 2230c-12-4-31-21-43-36l-21-27v-602l227-165c124-91 249-180 277-197l50-33h52l50 32c28 18 153 107 277 197l226 164 6 71c3 39 5 175 3 301l-3 230-15 23c-8 12-29 29-46 37l-32 15-494-1H995l-21-9z"/></g><g fill="#003fa8" transform="matrix(.1 0 0 -.1 0 300)"><path d="M974 2230c-12-4-31-21-43-36l-21-27v-602l227-165c124-91 249-180 277-197l50-33h52l50 32c28 18 153 107 277 197l226 164 6 71c3 39 5 175 3 301l-3 230-15 23c-8 12-29 29-46 37l-32 15-494-1H995l-21-9zm583-185c50-21 72-42 94-90l19-40v-79l-20-41-20-41-29-21c-15-12-47-26-70-33l-41-11-42 12c-24 6-55 20-71 31l-27 20-21 41-21 40 4 58 4 57 28 37 29 37 41 19 41 19h33c18 0 49-7 69-15zm-273-40-14-34v-126l19-40c23-50 73-100 125-128l41-21h65c36-1 76 3 90 7l25 8-20-16c-11-8-38-20-60-26l-40-11-54 5-54 6-46 28-45 28-32 43-32 42-12 53-11 53 11 50c10 45 43 114 54 114 3 0-2-16-10-35zm182-27c-8-18-24-55-35-81l-21-48 16-6 16-6-12-7-11-7 32-51c18-29 35-52 39-52s22 23 39 52l33 52-12 4-11 4 15 12 15 11-32 74-32 74-13 5-12 4-14-34z"/></g><g fill="#070403" transform="matrix(.1 0 0 -.1 0 300)"><path d="M974 2230c-12-4-31-21-43-36l-21-27v-602l227-165c124-91 249-180 277-197l50-33h52l50 32c28 18 153 107 277 197l226 164 6 71c3 39 5 175 3 301l-3 230-15 23c-8 12-29 29-46 37l-32 15-494-1H995l-21-9zm592-105 50-15 43-37 44-37 23-50 24-51v-120l-24-51-23-50-44-37-43-37-50-15c-62-19-90-19-152 0l-50 15-43 37-44 37-23 50-24 51v120l24 51 23 50 44 37 43 38 46 14c59 18 96 18 156 0zm-111-189c-20-43-34-80-33-81 2-1 18-10 36-19l32-17 35 17c19 9 35 17 35 18 0 2-15 38-34 82l-35 79-36-79zm-11-142c10-16 24-38 32-48l14-20 14 20c8 10 22 32 32 48l17 29-24-7c-13-5-31-8-39-8s-26 3-39 8l-24 7 17-29z"/></g></g></svg>