<?xml version="1.0"?><svg version="1.2" baseProfile="tiny-ps" viewBox="0 0 300 300" xmlns="http://www.w3.org/2000/svg" xmlns:xlink="http://www.w3.org/1999/xlink"><title>ws</title><g><g fill="#acd852" transform="matrix(.1 0 0 -.1 0 300)"><path d="M0 1500V0h3000v3000H0V1500z"/></g><g fill="#77c965" transform="matrix(.1 0 0 -.1 0 300)"><path d="M0 1500V0h3000v3000H0V1500zm1130 585v-15l13-1c6 0-49-23-123-50l-135-50-13-17-13-17 3-100 3-100 182-3 182-2 21-46c11-26 20-56 20-68 0-11 7-34 15-50l16-30-6-15-6-16-44 93-44 92H793l-7 31c-3 17-6 73-6 123v91l18 34c24 49 52 66 182 110l115 39 18-9c9-5 17-16 17-24zm470-193v-13l-22 3-23 3-3 19-4 19 14 8 13 9 13-17c6-9 12-23 12-31zm-436-284 15-22-5-20-5-21 77-175c42-96 80-179 84-184l8-8 46 68c25 38 46 64 47 59 0-6 2-18 4-29l4-18-30-48-29-47v-73l-25-12-25-11-26 12-27 12 6 41 6 42-21 40c-11 23-21 42-23 44-5 5-145-81-145-90 0-5 42-51 93-102l92-92 75-51c41-27 90-58 108-67l33-17 62 35c34 20 76 45 94 56l32 21 15-30c9-16 16-33 16-36 0-8-140-98-186-118l-40-18-93 53-94 53-91 76-91 75-56 70c-115 141-190 279-234 430-14 47-25 90-25 95v9h279l6 10c3 6 17 10 30 10h24l15-22zm181-177-5-10 10-6 10-6-17-30-18-30-11 16-12 16 11 29 11 30h27l-6-9zm-430 102c22-92 133-313 156-313 16 0 149 81 149 91 0 4-21 56-46 114l-47 105-30 15-30 15H908l7-27z"/></g><g fill="#3dbd8f" transform="matrix(.1 0 0 -.1 0 300)"><path d="M0 1500V0h3000v3000H0V1500zm1580 831v-19l-15 2c-8 1-17 5-21 8l-6 7 7 10c3 6 13 11 21 11h14v-19zm-132-127-3-37-273-97-273-97-20-19-20-18 3-100 3-101 183-3 183-2 56-120c31-66 59-120 63-120 3 0 25 32 48 72l41 71-10 18c-5 10-9 27-9 38v21l20 20 20 20h69l21-22 20-22v-19c0-10-4-26-9-35l-9-17 45-73c25-39 48-72 52-72 3 1 18 28 33 60l27 60h20c12 0 21-3 21-7 0-5-16-45-37-91l-37-84 12-19 12-19-12-24-13-24-80 134-80 135-20-3-19-3-47-80c-25-44-60-104-76-134l-31-54-12 23-12 23 11 24 11 24-59 127-60 127-204 3-205 2-6 23c-3 12-6 68-6 125v103l14 27c8 15 24 36 36 47l21 20 287 101c158 56 293 102 300 103l13 1-3-36zm219-10 12-16-6-14-5-14-37 5c-20 4-46 8-58 11l-23 4v19c0 10 3 21 8 25l7 8 45-6 45-6 12-16zm-8-129c30-8 61-21 69-29l15-14-6-16-6-16h-19c-10 0-38 6-63 14-24 8-56 17-71 20l-28 6v19c0 36 23 39 109 16zm156-118 1-27h-34l-6 16-6 17 11 14c7 7 17 12 23 10l11-4v-26zm-196-24 22-18-13-18-14-18-28 7-28 7-5 13c-3 8-3 21 1 29l5 15h20c10 0 28-8 40-17zm285-65c3-17 13-40 22-49l16-18 6-46 5-47-29 4-29 3-6 37c-3 21-14 55-24 77l-18 40 6 15 6 16h39l6-32zm-186 13 14-8-4-19-3-19h-50l-3 19-4 19 14 8c7 5 15 9 18 9s11-4 18-9zm70-93 12-12v-64l-16-6-17-6-13 11c-7 5-16 24-19 41l-7 30 13 9c19 12 33 11 47-3zm-617-169 11-21-6-21-5-21 81-184 81-185 14 19c8 11 34 51 58 89l44 71-5 21-6 21 21 21 21 21h19c11 0 27-7 35-16l16-15v-60l51-77c29-42 55-81 59-85l7-8 81 183 81 183-5 26-6 26 17 16 16 17h49l15-24 16-24-12-21c-7-11-21-23-32-28l-18-8-44-100c-24-55-44-104-45-110 0-5 34-29 75-53l76-43 10 6c5 4 23 31 40 60 16 29 36 58 43 64l13 11 10-12c5-7 14-25 21-40l11-28-61-92-62-93-91-90-90-90-75-51c-41-28-103-66-138-85l-62-34-48 25c-26 14-87 52-137 85l-90 59-90 91-90 90-46 70c-93 139-157 285-184 413l-7 32h281l6 10 6 10h58l12-21zm-261-59c0-40 133-318 157-327l11-4 71 42c39 23 71 45 71 48s-20 53-46 111l-46 106-30 17-30 17H910v-10zm523-305-53-85v-69l-21-11-21-12-24 6-25 7-8 22-9 22 9 17 10 18-22 50-21 50-67-37c-36-20-70-40-75-44l-9-8 44-52c61-73 185-176 279-233l79-48 56 32c31 18 91 58 133 89l77 57 73 79 74 79-19 14c-18 14-129 72-136 72-3 0-14-21-24-47l-20-48 4-37 5-37-26-12-26-12-25 11-25 12v75l-55 83-55 82h-13l-12-1-52-84z"/></g><g fill="#5a914d" transform="matrix(.1 0 0 -.1 0 300)"><path d="M0 1500V0h3000v3000H0V1500zm1749 829 75-20 77-40 78-41 64-58 64-59 42-65 43-65 24-71 25-70 6-63 5-62-16-14-16-13-14 5-15 6-6 48c-17 119-48 200-111 290l-45 62-56 47c-31 25-88 61-126 81l-69 34-76 20c-41 10-90 19-107 19h-33l-12 15-12 15 12 15 12 15 57-6c31-3 89-15 130-25zm-301-125-3-37-273-97-273-97-20-19-20-18 3-100 3-101 183-3 183-2 56-120c31-66 59-120 63-120 3 0 25 32 48 72l41 71-10 18c-5 10-9 27-9 38v21l20 20 20 20h69l21-22 20-22v-19c0-10-4-26-9-35l-9-17 45-73c25-39 48-72 52-72 3 1 18 28 33 60l27 60h20c12 0 21-3 21-7 0-5-16-45-37-91l-37-84 12-19 12-19-12-24-13-24-80 134-80 135-20-3-19-3-47-80c-25-44-60-104-76-134l-31-54-12 23-12 23 11 24 11 24-59 127-60 127-204 3-205 2-6 23c-3 12-6 68-6 125v103l14 27c8 15 24 36 36 47l21 20 287 101c158 56 293 102 300 103l13 1-3-36zm289-15 63-20 27-24 28-24-17-17-17-17-59 26c-51 23-92 35-189 53l-23 4v19c0 10 3 21 8 25l7 8 55-7c30-4 83-16 117-26zm-78-124c30-8 61-21 69-29l15-14-6-16-6-16h-19c-10 0-38 6-63 14-24 8-56 17-71 20l-28 6v19c0 36 23 39 109 16zm280 1 11-13-6-17-6-16h-49l-5 15c-4 8-4 22 0 30l5 15h19c11 0 25-6 31-14zm96-115c13-22 33-67 45-100l20-60v-89l-13-5c-8-3-20-1-27 3l-14 9-13 63-13 63-31 63-31 63 6 15 5 14h41l25-39zm-205 14 12-15-6-15-5-15h-49l-6 16-6 17 11 13c15 18 33 18 49-1zm-211-42 22-18-13-18-14-18-28 7-28 7-5 13c-3 8-3 21 1 29l5 15h20c10 0 28-8 40-17zm306-85 25-53v-86l-27 3-28 3-6 37c-3 21-14 55-24 77l-18 40 6 15 6 16h42l24-52zm-207 33 14-8-4-19-3-19h-50l-3 19-4 19 14 8c7 5 15 9 18 9s11-4 18-9zm70-93 12-12v-64l-16-6-17-6-13 11c-7 5-16 24-19 41l-7 30 13 9c19 12 33 11 47-3zm-617-169 11-21-6-21-5-21 81-184 81-185 14 19c8 11 34 51 58 89l44 71-5 21-6 21 21 21 21 21h19c11 0 27-7 35-16l16-15v-60l51-77c29-42 55-81 59-85l7-8 81 183 81 183-5 26-6 26 17 16 16 17h24c13 0 27-4 30-10l6-10h288l-20-72c-58-210-160-382-318-538l-87-85-74-51c-41-28-103-66-138-85l-62-34-48 25c-26 14-87 52-137 85l-90 59-90 91-90 90-46 70c-93 139-157 285-184 413l-7 32h281l6 10 6 10h58l12-21zm-261-59c0-40 133-318 157-327l11-4 71 42c39 23 71 45 71 48s-20 53-46 111l-46 106-30 17-30 17H910v-10zm986-10-28-18-44-99c-24-54-43-102-44-108 0-5 35-30 77-54l77-44 22 28c31 39 90 161 119 244l24 71-87-1h-87l-29-19zm-463-295-53-85v-69l-21-11-21-12-24 6-25 7-8 22-9 22 9 17 10 18-22 50-21 50-67-37c-36-20-70-40-75-44l-9-8 44-52c61-73 185-176 279-233l79-48 56 32c31 18 91 58 133 89l77 57 73 79 74 79-19 14c-18 14-129 72-136 72-3 0-14-21-24-47l-20-48 4-37 5-37-26-12-26-12-25 11-25 12v75l-55 83-55 82h-13l-12-1-52-84z"/></g><g fill="#335934" transform="matrix(.1 0 0 -.1 0 300)"><path d="M0 1500V0h3000v3000H0V1500zm1698 844c98-20 179-53 259-106l64-41 63-68 62-68 32-60 32-60 20-77c11-42 20-96 20-120v-43l-21-6-21-7-10 10c-5 5-13 38-18 73-11 78-29 131-72 212l-33 61-61 60-61 61-64 38-64 38-75 23c-41 13-103 27-138 31l-63 7-6 14c-3 8-3 21 1 29l5 15h36c20 0 70-7 113-16zm-238-126c0-18-4-38-8-44s-131-54-282-108-281-104-289-111l-14-14-5-55c-2-30-1-75 2-100l7-46 182-2 181-3 55-122c30-68 57-123 60-123s23 30 43 66l37 65-6 48-5 48 27 21 28 22h48l26-26 26-26-6-42-6-42 44-69 44-70 27 63 27 62h57l-14-32c-8-18-26-59-40-91l-26-58 11-21 11-21-11-25c-7-13-14-22-17-19-4 3-40 63-83 134l-76 128-17 3-16 3-77-135c-43-75-81-136-85-136s-11 11-14 25l-6 25 6 25 6 26-58 124-58 125-205 2-206 3-3 131-3 130 23 34 23 34 55 23c52 22 557 200 573 202l7 1v-32zm220-9c25-6 71-22 102-36l57-25 6-19c4-10 3-23 0-29-8-13-48-13-60-1-16 15-161 61-193 61h-30l-12 15-12 15 6 15 5 15h43c24 0 63-5 88-11zm23-155 37-18v-44l-13-5-13-5-77 22c-43 12-82 27-88 33l-10 10 7 18 7 17 56-5 56-5 38-18zm237 11 12-15-6-15-5-15h-52l-5 15c-4 8-4 22 0 30l5 15h19c11 0 25-7 32-15zm95-112c14-21 34-67 45-102l20-63v-89l-16-6-16-6-12 14c-7 8-18 40-25 73l-11 58-31 64-31 63 5 16 6 15h40l26-37zm-198 11 6-17-10-15c-13-22-26-24-47-9l-18 14 6 21 7 22h50l6-16zm-211-38 19-15-11-18-11-18-20-3-20-3-23 19-24 20 13 16 13 16h22c12 0 31-6 42-14zm294-68c10-18 24-54 30-81l10-48-11-20-10-20-16 3c-9 2-19 10-24 18-13 26-41 113-46 148l-5 32h52l20-32zm-192-9 3-26-15-6c-21-8-43 1-50 20l-6 16 11 14 12 14 21-3 21-3 3-26zm71-90 11-31-11-19c-12-23-32-24-53-3l-16 15v28c0 34 7 41 36 41h22l11-31zm-640-135 23-16-5-31-4-30 75-171c41-94 78-175 83-180l8-9 53 83 53 83-3 24-4 25 18 19 17 19h57l15-24 15-23-6-17-6-16 52-81c29-44 57-82 61-85l8-5 15 33c8 18 42 96 75 172l61 139v73l12 12 12 12h65l6-10 6-10h277l-10-42c-29-131-88-264-171-388l-51-74-83-87-84-87-83-59c-46-33-114-75-149-94l-66-34-48 24c-26 13-86 48-132 78l-84 54-97 97-97 97-53 79c-67 100-133 239-159 336-12 41-21 80-21 87v13h133l132 1 19 14c25 19 36 19 65-1zm-244-86c29-95 120-286 150-317 3-3 132 68 153 84 1 1-19 52-45 114l-48 111h-11c-6 0-17 7-24 15l-12 15H909l6-22zm995 7c-7-8-18-15-24-15h-11l-48-107-47-107 12-12c7-6 43-28 80-48l67-37 40 69c42 70 111 230 111 257v15h-168l-12-15zm-453-267c-18-29-43-69-55-89l-21-35 6-22 6-23-18-19-18-20h-57l-16 25-17 26 10 22 10 22-20 43c-12 23-23 42-26 42-4 0-37-18-74-39l-68-38 42-49c66-76 186-178 271-229l77-47 25 6c14 3 67 34 118 68l93 63 88 88 88 88-4 12c-3 11-137 92-141 85-1-2-11-23-22-48l-21-45 10-22 10-22-17-26-16-25h-60l-16 25-16 24 6 19 6 19-56 86c-31 48-60 87-65 87-4 0-23-24-42-52z"/></g><g fill="#0c1b15" transform="matrix(.1 0 0 -.1 0 300)"><path d="M0 1500V0h3000v3000H0V1500zm1715 845 70-15 80-39c44-21 108-59 142-84l62-46 45-57c56-71 101-161 121-239l15-59v-107l-16-6-17-6-16 10-15 10-12 74-12 74-25 63c-32 78-81 145-153 211l-55 51-82 40-82 40-60 14c-33 8-82 17-108 21l-48 6-6 15c-3 8-3 21 1 29l5 15h48c26 0 80-7 118-15zm-255-138v-42l-112-39c-62-22-191-68-287-102l-174-63-8-13-9-13v-195h365l54-120c29-66 57-120 60-120 4 0 23 28 43 63l37 64-6 42-6 42 23 24 23 25h64l20-22c11-13 23-31 26-41l6-17-8-24-9-23 39-67c22-36 42-66 45-66s16 25 30 55l25 55h30c16 0 29-2 29-5s-17-42-37-86l-37-81 11-27 10-28-14-28-15-27-12 18c-6 11-43 72-81 136l-70 118h-34l-57-97c-31-54-67-115-80-137l-22-38-15 28-15 28 11 23 10 23-58 125-58 125H791l-5 8c-3 5-8 53-12 108l-6 99 11 43 12 43 27 30 27 30 270 94c149 51 281 98 295 103 14 6 31 11 38 11l12 1v-43zm260-8c36-10 80-28 98-39l33-21-3-22-3-22-17-3-18-3-62 25c-35 13-94 31-133 39l-70 14-4 18-3 19 16 12 17 12 42-5c23-2 71-13 107-24zm-48-130c20-5 47-18 60-29l23-19-11-18-12-18-23 1c-13 1-54 9-91 19l-68 18-6 19-6 19 13 15 13 16 35-7c20-3 52-11 73-16zm259 11 19-11v-17c0-21-18-42-36-42-14 0-44 27-44 40 0 9 28 40 36 40 3 0 14-5 25-10zm103-123c30-39 60-121 70-190l7-48-12-15c-6-8-20-14-30-14h-19l-10 23c-5 12-11 42-15 67l-6 46-34 68-34 67 6 15 5 14h47l25-33zm-196-6 4-23-10-10-11-11-25 7-26 6v24c0 30 9 38 40 34l25-3 3-24zm-208-26 12-14-4-18-3-18-27-3-27-3-21 11-20 11v18c0 25 9 31 45 31h33l12-15zm279-46c36-39 60-133 45-173l-6-16h-47l-11 19c-5 11-10 30-10 43s-9 41-20 63c-23 46-24 57-8 73 18 18 35 15 57-9zm-178-15 13-16-11-16c-5-10-19-18-30-20l-20-3-12 15-13 15 7 21 6 20h47l13-16zm59-84 20-20v-23c0-27-17-47-41-47-20 0-34 17-43 52l-6 27 16 15c20 21 30 20 54-4zm-628-157 18-16v-68l71-162c39-89 74-168 78-175l8-14 51 81 52 82v65l12 12 12 12h63l17-19 18-19-4-25-3-24 55-83 54-83 24 54c14 30 49 110 79 179l54 124-6 28-6 27 20 20 21 21h18c10 0 27-7 38-15l19-14 138-1h139l-7-32c-4-18-21-75-37-126l-31-92-51-90c-28-49-82-127-119-175l-68-85-72-62c-73-63-200-149-274-187l-43-21-42 21c-189 95-367 256-487 439l-58 88-37 88c-20 48-45 120-55 159l-19 70 138 3 138 3 12 14 12 15h21c11 0 29-7 39-17zm-228-130c24-71 72-171 112-235l24-37 70 42c38 23 70 46 70 52 0 5-19 54-42 109l-43 98-22 9c-13 5-23 13-23 19v10H911l23-67zm986 59c0-5-10-13-23-19l-22-10-47-106-46-106 74-41 74-41 10 6c24 15 125 223 144 298l6 27h-170v-8zm-485-315-49-82 2-25 3-25-14-19-14-19-34 1-33 1-14 18-13 18 5 33 5 32-16 38c-8 20-17 39-18 40-6 6-135-73-135-82 0-5 42-50 93-101l92-93 95-61c52-33 102-61 110-61 9 0 59 28 110 62l94 61 79 76c43 41 87 87 98 102l19 27-64 36c-35 20-68 36-74 36-5 0-16-18-25-40l-16-41 6-33 5-33-17-16-16-17h-58l-16 16-15 16 2 32 2 31-52 78-53 77h-12l-12-1-50-82z"/></g></g></svg>
