<?xml version="1.0" standalone="no"?>
<!DOCTYPE svg PUBLIC "-//W3C//DTD SVG 20010904//EN"
 "http://www.w3.org/TR/2001/REC-SVG-20010904/DTD/svg10.dtd">
<svg version="1.0" xmlns="http://www.w3.org/2000/svg"
 width="3464.000000pt" height="3464.000000pt" viewBox="0 0 3464.000000 3464.000000"
 preserveAspectRatio="xMidYMid meet">

<g transform="translate(0.000000,3464.000000) scale(0.100000,-0.100000)"
fill="#000000" stroke="none">
<path d="M17040 26431 c-181 -19 -477 -138 -627 -251 -47 -36 -107 -79 -135
-97 -27 -17 -69 -47 -94 -66 -25 -19 -88 -57 -141 -84 l-95 -48 -2217 -5
-2216 -5 -112 -27 c-62 -15 -130 -36 -152 -48 -22 -11 -46 -20 -53 -20 -55 -1
-254 -130 -374 -243 -160 -151 -270 -321 -342 -527 -77 -221 -73 -127 -71
-1710 l2 -1415 -23 -46 c-12 -25 -34 -53 -49 -62 -14 -8 -39 -29 -56 -45 -16
-16 -39 -34 -50 -40 -11 -6 -51 -36 -90 -67 -38 -31 -95 -70 -125 -87 -30 -17
-68 -42 -85 -55 -46 -37 -169 -125 -275 -196 -52 -35 -104 -74 -115 -87 -11
-12 -54 -45 -95 -72 -144 -97 -297 -253 -365 -373 -15 -27 -36 -59 -45 -70
-29 -32 -118 -242 -130 -303 -14 -80 -12 -173 6 -264 12 -59 13 -83 5 -91 -12
-12 -15 -144 -5 -196 5 -21 12 -31 25 -31 14 0 19 -7 19 -25 0 -18 -5 -25 -19
-25 -14 0 -20 -10 -25 -37 -8 -49 -8 -1217 0 -1265 5 -28 11 -38 25 -38 11 0
19 -7 19 -15 0 -8 7 -15 15 -15 12 0 15 -16 15 -80 l0 -80 -34 0 -33 0 -7 -61
c-8 -79 -8 -2182 0 -2231 5 -28 11 -38 25 -38 11 0 19 -7 19 -15 0 -8 7 -15
15 -15 11 0 15 -12 15 -50 0 -38 4 -50 15 -50 8 0 15 -9 15 -20 0 -13 7 -20
20 -20 11 0 20 -7 20 -15 0 -8 7 -15 15 -15 8 0 15 -9 15 -20 0 -13 7 -20 20
-20 17 0 20 -7 20 -50 0 -49 1 -50 30 -50 l30 0 0 -125 0 -125 -30 0 -30 0 0
-85 c0 -78 -2 -85 -20 -85 -13 0 -20 -7 -20 -20 0 -11 -7 -20 -15 -20 -10 0
-15 -10 -15 -30 0 -28 -3 -30 -35 -30 l-35 0 0 -50 c0 -38 -4 -50 -15 -50 -8
0 -15 -4 -15 -10 0 -5 -8 -10 -19 -10 -14 0 -20 -10 -25 -37 -8 -49 -8 -1181
0 -1210 4 -14 14 -23 25 -23 11 0 19 -7 19 -15 0 -8 7 -15 15 -15 13 0 15 -20
15 -120 l0 -120 50 0 c38 0 50 -4 50 -15 0 -8 9 -15 20 -15 17 0 20 -7 20 -50
0 -49 1 -50 30 -50 l30 0 0 -290 0 -290 -30 0 c-29 0 -30 -1 -30 -50 0 -43 -3
-50 -20 -50 -15 0 -20 -7 -20 -25 0 -23 -3 -25 -50 -25 l-50 0 0 -50 c0 -38
-4 -50 -15 -50 -10 0 -15 -10 -15 -29 0 -23 -5 -30 -22 -33 -23 -3 -23 -4 -31
-258 -10 -305 -1 -1420 11 -1470 5 -19 14 -34 20 -33 7 2 12 -4 12 -12 0 -8 5
-15 10 -15 6 0 10 9 10 20 0 16 7 20 36 20 l37 0 -5 -76 c-4 -66 -3 -79 13
-93 11 -8 19 -21 19 -28 0 -7 7 -13 15 -13 8 0 15 -9 15 -20 0 -13 5 -18 15
-14 12 5 15 -4 15 -45 0 -33 -4 -51 -12 -51 -6 0 -2 -9 10 -20 12 -11 28 -20
36 -20 11 0 16 -14 18 -52 l3 -53 60 -1 c87 -2 85 -1 85 -34 0 -20 5 -30 15
-30 10 0 15 -11 15 -35 0 -27 8 -42 33 -65 17 -16 38 -30 45 -30 7 0 12 -13
12 -29 0 -42 9 -61 30 -61 11 0 20 -10 24 -24 6 -26 37 -41 74 -37 16 2 22 -3
22 -18 0 -12 6 -21 15 -21 9 0 15 -9 15 -25 0 -14 5 -25 10 -25 6 0 10 -7 10
-15 0 -8 5 -15 11 -15 14 0 39 -25 39 -39 0 -6 4 -11 9 -11 5 0 13 -9 16 -20
6 -20 45 -29 45 -10 0 20 18 9 24 -15 6 -22 12 -25 50 -25 43 0 44 0 50 -40 5
-31 11 -40 26 -40 11 0 20 -4 20 -10 0 -5 7 -10 15 -10 8 0 15 -8 15 -19 0
-15 10 -20 60 -25 33 -4 60 -11 60 -16 0 -17 37 -11 74 11 33 19 37 19 66 4
20 -10 33 -26 36 -45 l6 -28 105 -7 c58 -4 1313 -6 2789 -3 2064 3 2687 7
2696 16 15 15 359 17 374 3 10 -11 7744 -28 7786 -18 15 4 30 16 33 28 8 23
89 79 116 79 22 0 70 -25 80 -41 10 -16 66 -21 137 -13 34 3 50 9 46 16 -4 6
-3 8 3 5 6 -4 36 7 68 23 32 17 67 30 77 30 14 0 18 8 18 35 0 31 3 35 25 35
23 0 25 4 25 40 0 36 3 40 25 40 14 0 25 5 25 10 0 6 20 10 45 10 43 0 45 1
45 29 0 36 23 61 56 61 21 0 24 4 24 40 l0 40 50 0 50 0 0 50 0 50 55 0 55 0
0 75 c0 60 3 75 15 75 8 0 15 5 15 11 0 25 30 40 65 33 28 -5 35 -3 35 10 0
13 11 16 50 16 28 0 50 5 50 10 0 6 25 34 55 62 84 78 148 215 175 373 20 119
20 143 20 4551 0 4070 -2 4438 -17 4530 -13 76 -17 173 -18 419 0 221 -5 334
-13 365 -22 78 -104 253 -144 306 -21 28 -38 54 -38 58 0 13 -93 118 -195 222
-65 65 -125 115 -171 142 -39 22 -77 48 -84 57 -8 9 -43 38 -79 63 -37 25 -97
72 -136 103 -38 31 -95 73 -125 92 -30 20 -66 45 -80 56 -14 10 -61 39 -105
65 -44 25 -93 59 -108 76 -15 16 -46 39 -68 51 -21 13 -39 26 -39 30 0 5 -20
22 -44 38 -28 20 -52 48 -67 78 l-23 47 2 1400 c2 840 -1 1421 -7 1451 -50
266 -59 297 -143 460 -64 125 -187 290 -255 342 -19 16 -58 47 -85 71 -27 23
-53 42 -57 42 -5 0 -31 17 -58 38 -26 20 -70 47 -98 59 -27 12 -75 33 -106 46
-30 13 -78 29 -105 36 -27 6 -78 19 -114 29 -61 16 -212 17 -2285 22 l-2220 5
-90 43 c-49 24 -114 61 -145 83 -30 22 -80 56 -110 75 -30 20 -71 51 -90 69
-52 48 -140 101 -254 152 -90 40 -137 57 -310 108 -58 18 -325 27 -436 16z
m8100 -6896 c0 -21 -5 -25 -30 -25 -20 0 -30 5 -30 15 0 8 7 15 15 15 8 0 15
5 15 10 0 6 7 10 15 10 9 0 15 -9 15 -25z m270 -85 c0 -5 -7 -10 -15 -10 -8 0
-15 5 -15 10 0 6 7 10 15 10 8 0 15 -4 15 -10z m0 -43 c0 -25 -24 -47 -40 -37
-12 7 -12 12 4 29 22 24 36 27 36 8z m-1069 -425 c-37 -4 -52 5 -32 18 8 5 25
3 40 -3 l26 -12 -34 -3z m-14421 -372 c0 -12 -5 -27 -12 -34 -16 -17 -38 3
-38 33 0 16 6 21 25 21 19 0 25 -5 25 -20z m3794 -5155 c6 -16 -26 -55 -45
-55 -6 0 -9 9 -6 20 3 13 0 20 -9 20 -8 0 -14 7 -14 15 0 21 66 21 74 0z
m-524 -95 l0 -80 -45 0 c-38 0 -45 3 -45 20 0 11 -4 20 -10 20 -5 0 -10 7 -10
15 0 8 4 15 9 15 5 0 13 9 16 20 7 22 31 27 38 8 3 -7 6 4 6 25 1 30 5 37 21
37 18 0 20 -7 20 -80z m8111 48 c1 -7 0 -25 -1 -40 -1 -16 3 -28 9 -28 6 0 11
-4 11 -10 0 -5 -11 -10 -25 -10 -22 0 -25 4 -25 35 0 21 5 35 13 36 10 0 10 2
0 6 -18 7 -16 23 2 23 8 0 15 -6 16 -12z m-8471 -808 c0 -5 7 -10 15 -10 22 0
18 -18 -5 -25 -30 -9 -60 4 -60 26 0 14 7 19 25 19 14 0 25 -4 25 -10z m9300
-30 c0 -5 9 -10 19 -10 22 0 31 -19 31 -66 0 -33 -1 -34 -40 -34 l-40 0 0 60
c0 47 3 60 15 60 8 0 15 -4 15 -10z m688 -682 c23 -23 13 -38 -23 -38 -24 0
-35 5 -35 15 0 8 7 15 15 15 8 0 15 5 15 10 0 14 13 13 28 -2z m192 -243 c0
-31 3 -35 25 -35 16 0 25 -6 25 -15 0 -11 -12 -15 -50 -15 l-50 0 0 50 c0 47
2 50 25 50 22 0 25 -4 25 -35z m662 -640 c-2 -14 -8 -25 -13 -25 -10 0 -12 21
-3 44 9 24 22 10 16 -19z m208 -240 c0 -9 9 -15 25 -15 18 0 25 -5 25 -20 0
-16 -7 -20 -35 -20 -33 0 -35 2 -35 35 0 19 5 35 10 35 6 0 10 -7 10 -15z
m-13710 -297 c0 -10 2 -10 8 -1 6 9 13 9 32 0 44 -22 36 -37 -19 -37 -48 0
-51 2 -51 25 0 16 6 25 15 25 8 0 15 -6 15 -12z"/>
</g>
</svg>
