<?xml version="1.0" encoding="UTF-8"?>
<svg version="1.1" xmlns="http://www.w3.org/2000/svg" width="833" height="833">
<path d="M0 0 C3.45610348 2.44000906 6.02438758 5.6892748 8.7578125 8.890625 C10.60952762 10.98945513 12.41581336 12.74399789 14.578125 14.50390625 C17.92366029 17.22701637 20.62541185 20.32960722 23.375 23.64453125 C25.0323718 25.60658799 25.0323718 25.60658799 27.953125 27.37890625 C27.953125 28.03890625 27.953125 28.69890625 27.953125 29.37890625 C28.79047825 29.70990814 28.79047825 29.70990814 29.64474773 30.04759693 C32.69186139 31.80495734 34.56081367 34.04165039 36.88716125 36.67985535 C43.03291668 43.54323523 49.48964066 50.05670228 56.00854492 56.5637207 C57.27816484 57.83469959 58.5475728 59.10589024 59.81678772 60.37727356 C63.22747031 63.79246969 66.64125349 67.20454992 70.0557878 70.61589456 C73.6463097 74.20386336 77.23436696 77.7942956 80.8228302 81.38432312 C86.84192447 87.40522959 92.86310816 93.42404047 98.88549805 99.44165039 C105.8328558 106.38355745 112.77659067 113.32907274 119.71847457 120.27645332 C125.70163955 126.26416471 131.6867615 132.24991474 137.67350656 138.23404664 C141.23938237 141.79836936 144.80459314 145.36335025 148.36803246 148.93010902 C151.71552644 152.28050432 155.06548149 155.62841973 158.41730309 158.9744854 C159.64197602 160.19784325 160.86581213 161.42203953 162.08871841 162.64716339 C170.46937945 171.0418529 170.46937945 171.0418529 179.29445362 178.96457195 C182.2850224 181.51460329 185.12756031 184.21134433 187.953125 186.94140625 C188.53707031 187.47958984 189.12101562 188.01777344 189.72265625 188.57226562 C193.86792499 192.60589364 193.86792499 192.60589364 194.328125 196.78125 C194.204375 197.63847656 194.080625 198.49570312 193.953125 199.37890625 C188.76796657 202.42899944 184.05873432 203.17250849 178.203125 203.87890625 C176.31486951 204.12712763 174.42685103 204.37715808 172.5390625 204.62890625 C171.59772461 204.75265625 170.65638672 204.87640625 169.68652344 205.00390625 C165.71943468 205.54815851 161.77447986 206.20230012 157.828125 206.87890625 C153.17522539 207.67462556 148.52215649 208.45282227 143.85546875 209.1640625 C143.00549316 209.29425781 142.15551758 209.42445313 141.27978516 209.55859375 C139.65632126 209.80578654 138.03232601 210.04952571 136.40771484 210.2890625 C133.0116319 210.8084721 129.8236139 211.41643503 126.515625 212.375 C122.09211401 213.62153764 117.68679501 214.25161062 113.140625 214.87890625 C108.04824105 215.59129201 103.00041131 216.34305871 97.96875 217.41015625 C92.83887407 218.4661448 87.73056348 218.95625513 82.515625 219.37890625 C76.1556728 219.93802293 69.92288024 220.59629048 63.66015625 221.87109375 C57.80175313 222.97007269 51.86428081 223.62904303 45.953125 224.37890625 C45.953125 225.36890625 45.953125 226.35890625 45.953125 227.37890625 C45.623125 228.03890625 45.293125 228.69890625 44.953125 229.37890625 C41.983125 228.38890625 41.983125 228.38890625 38.953125 227.37890625 C38.953125 228.36890625 38.953125 229.35890625 38.953125 230.37890625 C40.2834375 230.56453125 40.2834375 230.56453125 41.640625 230.75390625 C44.953125 231.37890625 44.953125 231.37890625 47.26953125 232.3515625 C50.25419875 233.49416447 53.04431299 233.9784769 56.203125 234.44140625 C61.84869009 235.27447134 61.84869009 235.27447134 62.953125 236.37890625 C64.27981032 236.59212353 65.61572119 236.74888088 66.953125 236.87890625 C67.7575 236.96140625 68.561875 237.04390625 69.390625 237.12890625 C70.23625 237.21140625 71.081875 237.29390625 71.953125 237.37890625 C73.62018938 237.54154668 75.28688671 237.70801002 76.953125 237.87890625 C77.695625 237.95109375 78.438125 238.02328125 79.203125 238.09765625 C80.953125 238.37890625 80.953125 238.37890625 81.953125 239.37890625 C84.21745916 239.75385421 86.4901429 240.07894568 88.765625 240.37890625 C95.60616745 241.28625281 95.60616745 241.28625281 98.015625 241.9296875 C104.27326823 243.38055236 111.49110068 243.00368705 117.578125 241.06640625 C121.4985344 240.03292842 123.39397124 240.81665762 126.9387207 242.6730957 C133.03269054 245.58734989 138.929624 246.85881318 145.55859375 247.984375 C146.72264236 248.19451736 147.88669098 248.40465973 149.08601379 248.62117004 C152.76859442 249.28329915 156.45428611 249.92556639 160.140625 250.56640625 C163.83682702 251.22211013 167.53226728 251.88191526 171.22737122 252.54377747 C173.51603398 252.95230739 175.8054619 253.35658146 178.0957489 253.75590515 C183.78557233 254.75729192 189.3697758 255.89200633 194.953125 257.37890625 C194.56814302 263.71928111 194.56814302 263.71928111 191.84596252 266.63890076 C190.93845749 267.29229935 190.03095245 267.94569794 189.09594727 268.61889648 C183.32496088 273.02246903 178.22498595 277.86900564 173.14701653 283.03468513 C171.62572794 284.58202671 170.09781693 286.12256885 168.56825256 287.66172791 C165.33660032 290.91592614 162.11307042 294.17809431 158.890625 297.44140625 C155.12112762 301.25819971 151.34832162 305.07160701 147.56711006 308.87679863 C146.06174923 310.39512032 144.5625248 311.91932714 143.0634613 313.44386292 C142.15814163 314.35578903 141.25282196 315.26771515 140.32006836 316.20727539 C139.52273788 317.0150795 138.72540741 317.82288361 137.90391541 318.65516663 C135.953125 320.37890625 135.953125 320.37890625 133.953125 320.37890625 C133.68435547 320.97219727 133.41558594 321.56548828 133.13867188 322.17675781 C131.95021768 324.38430658 130.74570111 325.84433507 128.984375 327.61328125 C128.41332031 328.18691406 127.84226562 328.76054688 127.25390625 329.3515625 C126.65964844 329.93808594 126.06539062 330.52460937 125.453125 331.12890625 C124.85886719 331.73089844 124.26460937 332.33289063 123.65234375 332.953125 C122.79576172 333.80583984 122.79576172 333.80583984 121.921875 334.67578125 C121.40044922 335.19495117 120.87902344 335.71412109 120.34179688 336.24902344 C118.953125 337.37890625 118.953125 337.37890625 116.953125 337.37890625 C116.68435547 337.97219727 116.41558594 338.56548828 116.13867188 339.17675781 C114.95021768 341.38430658 113.74570111 342.84433507 111.984375 344.61328125 C111.41332031 345.18691406 110.84226562 345.76054688 110.25390625 346.3515625 C109.65964844 346.93808594 109.06539062 347.52460937 108.453125 348.12890625 C107.85886719 348.73089844 107.26460937 349.33289063 106.65234375 349.953125 C105.79576172 350.80583984 105.79576172 350.80583984 104.921875 351.67578125 C104.40044922 352.19495117 103.87902344 352.71412109 103.34179688 353.24902344 C101.953125 354.37890625 101.953125 354.37890625 99.953125 354.37890625 C99.70099401 354.95607675 99.44886301 355.53324724 99.18909168 356.12790775 C97.79681588 358.6635835 96.22538854 360.35266414 94.17765808 362.3948822 C92.99797707 363.57868721 92.99797707 363.57868721 91.79446411 364.78640747 C90.93054047 365.64314056 90.06661682 366.49987366 89.17651367 367.38256836 C88.26741745 368.29195663 87.35832123 369.20134491 86.42167664 370.13829041 C83.93012963 372.63041123 81.43246252 375.11631564 78.93366027 377.60115886 C76.31655561 380.20574319 73.70513037 382.81600925 71.09309387 385.42567444 C66.14133704 390.37121354 61.18450681 395.31163509 56.22583228 400.25023705 C50.60111187 405.85267352 44.9820022 411.46072271 39.36339223 417.06928623 C29.75276086 426.66254279 20.13792036 436.25156164 10.51837158 445.83587646 C9.7234581 446.62789963 8.92854462 447.41992279 8.10954285 448.23594666 C7.01514672 449.3226405 7.01514672 449.3226405 5.89864159 450.43128777 C4.7155551 451.61565243 3.54111499 452.80885165 2.38286781 454.017519 C0.20766348 456.28313744 -0.99551463 457.36178613 -4.046875 458.37890625 C-9.64900186 458.37890625 -13.04487599 454.63220845 -16.8371582 450.84741211 C-17.75773514 449.9331395 -18.67831207 449.01886688 -19.62678528 448.07688904 C-20.61733154 447.08276431 -21.60761578 446.08837844 -22.59765625 445.09375 C-23.62154932 444.07120502 -24.64573906 443.04895703 -25.67021179 442.0269928 C-27.80920474 439.89094029 -29.94455818 437.75133214 -32.07739258 435.60913086 C-34.81570925 432.85937688 -37.56296524 430.11875693 -40.31297016 427.3806982 C-42.42603409 425.27484512 -44.5343314 423.16427197 -46.6411953 421.05221748 C-47.65286521 420.03921116 -48.66602908 419.0276946 -49.68068886 418.01768303 C-51.09314242 416.61028645 -52.49854038 415.19581946 -53.90356445 413.78100586 C-54.70566849 412.97731064 -55.50777252 412.17361542 -56.33418274 411.3455658 C-58.046875 409.37890625 -58.046875 409.37890625 -58.046875 407.37890625 C-58.62824219 407.12367188 -59.20960938 406.8684375 -59.80859375 406.60546875 C-62.27502981 405.25387901 -63.89530354 403.76197931 -65.859375 401.75390625 C-66.55417969 401.04363281 -67.24898437 400.33335937 -67.96484375 399.6015625 C-69.92549107 397.50848872 -71.8073768 395.37009926 -73.671875 393.19140625 C-75.72128108 390.8035236 -77.60740064 388.91180155 -80.046875 386.87890625 C-82.41968082 384.90156807 -84.18223276 383.14431539 -86.14868164 380.81665039 C-90.35862487 375.95137574 -94.86468263 371.41725583 -99.41796875 366.875 C-100.73970848 365.55182518 -100.73970848 365.55182518 -102.08815002 364.20191956 C-104.4126425 361.87657816 -106.73953407 359.55367007 -109.06726074 357.23156738 C-110.48332178 355.81745801 -111.89741821 354.40141504 -113.31079102 352.98461914 C-116.05215756 350.23703905 -118.79700534 347.49298519 -121.54296875 344.75 C-122.37654404 343.91440048 -123.21011932 343.07880096 -124.06895447 342.21788025 C-128.38346796 337.92041683 -132.76390283 333.77475616 -137.40097046 329.82598877 C-139.54629652 327.93981386 -141.39613319 325.87456337 -143.234375 323.69140625 C-145.96312096 320.52670679 -148.74817502 317.95601561 -152.046875 315.37890625 C-152.046875 314.71890625 -152.046875 314.05890625 -152.046875 313.37890625 C-153.036875 313.04890625 -154.026875 312.71890625 -155.046875 312.37890625 C-156.44921875 310.91796875 -156.44921875 310.91796875 -157.984375 309.00390625 C-161.00670553 305.4355244 -164.2607809 302.25000149 -167.734375 299.12890625 C-175.39798733 292.21954834 -182.99549608 285.12806095 -189.609375 277.19140625 C-193.12834844 272.99134118 -197.38504743 269.8803548 -201.7890625 266.65234375 C-204.53339154 263.88902281 -204.97291741 262.23526612 -205.046875 258.37890625 C-202.62954957 255.96158082 -201.34491269 255.85794266 -198.0234375 255.23046875 C-196.49928223 254.93221191 -196.49928223 254.93221191 -194.94433594 254.62792969 C-193.32446777 254.31903809 -193.32446777 254.31903809 -191.671875 254.00390625 C-183.98919138 252.48008695 -176.57454766 250.89519736 -169.21875 248.17578125 C-167.046875 247.37890625 -167.046875 247.37890625 -164.875 247.08203125 C-163.97007812 246.73398437 -163.97007812 246.73398437 -163.046875 246.37890625 C-162.74910156 245.61707031 -162.45132813 244.85523438 -162.14453125 244.0703125 C-159.51202814 237.61552729 -150.36915091 233.81647821 -144.234375 231.06640625 C-142.8390088 230.50274845 -141.44321283 229.94015272 -140.046875 229.37890625 C-138.891875 228.80140625 -137.736875 228.22390625 -136.546875 227.62890625 C-132.23442661 226.08874611 -128.57073981 226.10193493 -124.046875 226.37890625 C-124.046875 225.71890625 -124.046875 225.05890625 -124.046875 224.37890625 C-120.2618188 224.18359196 -117.64884539 224.70841728 -114.171875 226.19140625 C-113.29660156 226.55492187 -112.42132813 226.9184375 -111.51953125 227.29296875 C-109.52703649 228.16802964 -107.56286286 229.1074213 -105.609375 230.06640625 C-100.80526192 231.83634265 -96.13117903 232.11227909 -91.046875 232.37890625 C-91.046875 233.03890625 -91.046875 233.69890625 -91.046875 234.37890625 C-87.83788359 234.2681893 -84.62997791 234.13776312 -81.421875 234.00390625 C-80.06642578 233.9575 -80.06642578 233.9575 -78.68359375 233.91015625 C-73.74374409 233.69381247 -69.71786581 233.11084666 -65.046875 231.37890625 C-62.76327535 230.95755871 -60.47068206 230.58230726 -58.171875 230.25390625 C-57.01945313 230.08632813 -55.86703125 229.91875 -54.6796875 229.74609375 C-53.81085938 229.62492188 -52.94203125 229.50375 -52.046875 229.37890625 C-52.046875 228.71890625 -52.046875 228.05890625 -52.046875 227.37890625 C-52.913125 227.44078125 -53.779375 227.50265625 -54.671875 227.56640625 C-58.046875 227.37890625 -58.046875 227.37890625 -60.6015625 225.96484375 C-65.1970946 223.84944008 -69.55064218 223.3795071 -74.546875 222.81640625 C-75.57627197 222.69273682 -76.60566895 222.56906738 -77.66625977 222.44165039 C-87.68581844 221.29912782 -97.73683853 220.64898536 -107.8046875 220.11303711 C-116.77564377 219.6040339 -124.31020846 219.12472087 -132.046875 214.37890625 C-134.76865712 213.60933792 -137.41029676 212.95056672 -140.171875 212.37890625 C-140.95739746 212.21156982 -141.74291992 212.0442334 -142.55224609 211.87182617 C-154.11103005 209.46727835 -165.67811244 207.42105233 -177.484375 206.87890625 C-186.70106549 206.41714821 -195.83353824 204.75935252 -204.046875 200.37890625 C-205.046875 197.37890625 -205.046875 197.37890625 -204.109375 194.62890625 C-202.32754968 191.8211815 -201.30768546 190.61830276 -198.84765625 188.609375 C-194.69007883 185.049229 -190.83969067 181.23884462 -186.9921875 177.3515625 C-186.36044113 176.71421173 -185.72869476 176.07686096 -185.07780457 175.42019653 C-182.43062354 172.74562308 -179.78744936 170.06715601 -177.1484375 167.38452148 C-175.20482423 165.41089375 -173.2551895 163.44337896 -171.3046875 161.4765625 C-170.70576691 160.86418228 -170.10684631 160.25180206 -169.48977661 159.62086487 C-168.04631592 158.16861073 -166.55109872 156.76812612 -165.046875 155.37890625 C-164.386875 155.37890625 -163.726875 155.37890625 -163.046875 155.37890625 C-162.78338257 154.79075134 -162.51989014 154.20259644 -162.24841309 153.59661865 C-160.99449929 151.28223494 -159.67625924 149.7546251 -157.82226562 147.89550781 C-157.16818726 147.23512512 -156.51410889 146.57474243 -155.84020996 145.89434814 C-155.13497192 145.19315857 -154.42973389 144.49196899 -153.703125 143.76953125 C-152.97822876 143.04272156 -152.25333252 142.31591187 -151.50646973 141.56707764 C-149.97568489 140.03493346 -148.44237803 138.5053055 -146.90673828 136.97802734 C-144.5487673 134.63078994 -142.20167954 132.27304847 -139.85546875 129.9140625 C-138.36782864 128.42774343 -136.87956856 126.94204456 -135.390625 125.45703125 C-134.68538696 124.74774475 -133.98014893 124.03845825 -133.25354004 123.30767822 C-132.27242249 122.33601715 -132.27242249 122.33601715 -131.27148438 121.34472656 C-130.69571655 120.77054993 -130.11994873 120.19637329 -129.5267334 119.60479736 C-128.046875 118.37890625 -128.046875 118.37890625 -126.046875 118.37890625 C-125.66015625 117.50492188 -125.66015625 117.50492188 -125.265625 116.61328125 C-123.94853483 114.19861595 -122.49599116 112.56150448 -120.546875 110.62890625 C-119.9384375 110.0153125 -119.33 109.40171875 -118.703125 108.76953125 C-117.046875 107.37890625 -117.046875 107.37890625 -115.046875 107.37890625 C-114.84449219 106.85039062 -114.64210938 106.321875 -114.43359375 105.77734375 C-112.43379369 102.31853462 -109.70300898 99.78426878 -106.859375 97.00390625 C-106.27075684 96.4210083 -105.68213867 95.83811035 -105.07568359 95.23754883 C-101.69974402 91.91804594 -98.24744923 88.7729895 -94.58984375 85.765625 C-92.07291904 83.50357874 -89.94434175 80.91760604 -87.75 78.34765625 C-85.30888927 75.52582183 -82.77985198 72.92121041 -80.046875 70.37890625 C-79.386875 70.37890625 -78.726875 70.37890625 -78.046875 70.37890625 C-77.8096875 69.81719727 -77.5725 69.25548828 -77.328125 68.67675781 C-75.75368143 65.85307967 -73.83002955 63.90275783 -71.546875 61.61328125 C-70.66 60.72382813 -69.773125 59.834375 -68.859375 58.91796875 C-67.93125 57.99757812 -67.003125 57.0771875 -66.046875 56.12890625 C-65.11875 55.19304687 -64.190625 54.2571875 -63.234375 53.29296875 C-62.3475 52.40867188 -61.460625 51.524375 -60.546875 50.61328125 C-59.7321875 49.80084961 -58.9175 48.98841797 -58.078125 48.15136719 C-56.046875 46.37890625 -56.046875 46.37890625 -54.046875 46.37890625 C-53.69109375 45.53634277 -53.69109375 45.53634277 -53.328125 44.67675781 C-51.75368143 41.85307967 -49.83002955 39.90275783 -47.546875 37.61328125 C-46.66 36.72382813 -45.773125 35.834375 -44.859375 34.91796875 C-43.93125 33.99757812 -43.003125 33.0771875 -42.046875 32.12890625 C-41.11875 31.19304687 -40.190625 30.2571875 -39.234375 29.29296875 C-37.9040625 27.96652344 -37.9040625 27.96652344 -36.546875 26.61328125 C-35.7321875 25.80084961 -34.9175 24.98841797 -34.078125 24.15136719 C-32.046875 22.37890625 -32.046875 22.37890625 -30.046875 22.37890625 C-29.67429565 21.52063232 -29.67429565 21.52063232 -29.29418945 20.64501953 C-26.8346231 16.17649439 -22.82259506 12.82801058 -19.234375 9.25390625 C-18.42677734 8.43019531 -17.61917969 7.60648438 -16.78710938 6.7578125 C-16.00013672 5.97019531 -15.21316406 5.18257812 -14.40234375 4.37109375 C-13.68715576 3.6529248 -12.97196777 2.93475586 -12.23510742 2.19482422 C-8.12827777 -1.21325332 -5.00192845 -2.42484792 0 0 Z M27.953125 226.37890625 C27.953125 226.70890625 27.953125 227.03890625 27.953125 227.37890625 C29.603125 227.37890625 31.253125 227.37890625 32.953125 227.37890625 C32.953125 227.04890625 32.953125 226.71890625 32.953125 226.37890625 C31.303125 226.37890625 29.653125 226.37890625 27.953125 226.37890625 Z " fill="#11091C" transform="translate(423.046875,189.62109375)"/>
<path d="M0 0 C1.31172432 0.01281384 2.62344864 0.02562767 3.97492218 0.0388298 C19.90015312 0.19596678 35.82515702 0.37009704 51.75 0.5625 C49.66558242 8.27931038 49.66558242 8.27931038 46.73828125 11.02734375 C45.85414551 11.8795752 45.85414551 11.8795752 44.95214844 12.74902344 C44.32856445 13.3268457 43.70498047 13.90466797 43.0625 14.5 C41.78076585 15.73121608 40.50079649 16.96427219 39.22265625 18.19921875 C38.61437988 18.7823584 38.00610352 19.36549805 37.37939453 19.96630859 C35.47723411 21.82970758 33.71859326 23.77917641 32 25.8125 C28.60967622 29.81924629 24.88006577 33.44600859 21.1484375 37.1328125 C19.1301527 39.17739417 17.23500482 41.25086018 15.375 43.4375 C12.33569255 46.99536227 9.0763598 50.27691691 5.75 53.5625 C2.46531689 56.80701578 -0.75734026 60.04172384 -3.75 63.5625 C-7.2254355 67.65124765 -11.03100237 71.37066684 -14.84545898 75.13842773 C-18.20060894 78.4683233 -21.34725452 81.90181399 -24.41015625 85.50390625 C-26.75494833 88.12748464 -29.24628102 90.5924275 -31.75 93.0625 C-35.61166876 96.88173284 -39.30150395 100.76327466 -42.8125 104.90625 C-44.22636395 106.53526716 -45.70697856 108.05621717 -47.25 109.5625 C-45.7658627 113.04904476 -43.78785948 115.20441072 -41.0625 117.8125 C-38.2057698 120.60110468 -35.46001567 123.39556873 -32.875 126.4375 C-29.98785143 129.8080781 -26.90751863 132.94752836 -23.75 136.0625 C-20.69682658 139.07480779 -17.70927568 142.09798926 -14.9375 145.375 C-11.0135892 149.98298242 -6.67341311 154.16433078 -2.375 158.41796875 C1.28713513 162.05657838 4.77658307 165.76518882 8.11328125 169.70703125 C10.78536672 172.73624509 13.69987463 175.51977127 16.57421875 178.35546875 C18.49497384 180.30381099 20.29042805 182.29249209 22.0625 184.375 C25.60673188 188.514068 29.46002535 192.30076613 33.33374023 196.12670898 C36.79504974 199.56183364 40.07087151 203.0931657 43.21484375 206.82421875 C44.77823187 208.59446739 46.44742318 210.15526603 48.1875 211.75 C50.75 214.5625 50.75 214.5625 51.1875 217.375 C50.75 219.5625 50.75 219.5625 49.75 220.5625 C46.71780942 220.69382993 43.70737161 220.75940173 40.67358398 220.78369141 C39.70996854 220.7951718 38.74635309 220.8066522 37.75353718 220.81848049 C34.50108957 220.85557748 31.24862305 220.88506408 27.99609375 220.9140625 C25.67832245 220.93767229 23.36055311 220.96147527 21.04278564 220.98545837 C14.73870545 221.04843633 8.43457871 221.10301234 2.1303978 221.15483475 C-1.79722629 221.18737346 -5.72482997 221.22183926 -9.6524353 221.25656128 C-66.19240848 221.74562386 -122.71277505 221.29181499 -179.25 220.5625 C-178.755 219.5725 -178.755 219.5725 -178.25 218.5625 C-178.559375 217.69625 -178.86875 216.83 -179.1875 215.9375 C-179.25 212.5625 -179.25 212.5625 -177.78515625 210.671875 C-176.37448587 209.29640369 -174.93883811 207.94626586 -173.484375 206.6171875 C-171.47799164 204.77215665 -169.74791238 202.89788062 -168 200.8125 C-164.91438432 197.21733311 -161.6180304 193.88911595 -158.25 190.5625 C-154.32934339 186.68993486 -150.595958 182.75457745 -147.0234375 178.5546875 C-144.05306221 175.21792231 -140.82918589 172.13471824 -137.65234375 168.99609375 C-135.61285627 166.93007635 -133.694922 164.83244451 -131.8125 162.625 C-128.94827567 159.27324813 -125.88664403 156.15694939 -122.75 153.0625 C-119.71770728 150.07072564 -116.74845693 147.07097987 -114 143.8125 C-109.86614893 138.95622835 -105.26947148 134.55746896 -100.74169922 130.07373047 C-96.86910861 126.22438122 -93.13940038 122.32146737 -89.61328125 118.1484375 C-87.61346237 115.82200063 -85.45151176 113.69729928 -83.25 111.5625 C-84.7341373 108.07595524 -86.71214052 105.92058928 -89.4375 103.3125 C-92.2942302 100.52389532 -95.03998433 97.72943127 -97.625 94.6875 C-100.51214762 91.31692302 -103.59246239 88.1774545 -106.75 85.0625 C-110.51216134 81.35107583 -114.07809836 77.54391579 -117.5078125 73.5234375 C-119.5043789 71.27618115 -121.61012946 69.17355073 -123.75 67.0625 C-126.4744154 64.3747154 -129.08260312 61.66433137 -131.5625 58.75 C-134.62500248 55.17351108 -137.90281273 51.86861119 -141.25 48.5625 C-144.49297793 45.35907661 -147.6793621 42.17142706 -150.625 38.6875 C-153.95738826 34.76414634 -157.59435317 31.18065545 -161.25 27.5625 C-165.56400788 23.2884627 -169.80609738 19.01845311 -173.71875 14.3671875 C-174.8523687 13.03113688 -176.0255718 11.72845255 -177.21875 10.4453125 C-177.8684375 9.74148438 -178.518125 9.03765625 -179.1875 8.3125 C-179.77402344 7.68859375 -180.36054688 7.0646875 -180.96484375 6.421875 C-182.25 4.5625 -182.25 4.5625 -182.25 0.5625 C-165.37522106 0.35357145 -148.50023463 0.16813392 -131.625 0 C-129.70987358 -0.0190999 -129.70987358 -0.0190999 -127.75605774 -0.03858566 C-85.16491916 -0.45646544 -42.5909289 -0.41646019 0 0 Z " fill="#000001" transform="translate(483.25,307.4375)"/>
<path d="M0 0 C3.23076527 1.37285936 5.24539325 4.05654695 7.51641464 6.64278316 C8.04235214 7.22664791 8.56828964 7.81051266 9.11016464 8.41207027 C10.20093048 9.62332388 11.28831141 10.83763384 12.37237167 12.05489254 C14.7147379 14.68435954 17.08184354 17.29004622 19.45391464 19.89278316 C19.89775497 20.38012936 20.34159531 20.86747555 20.79888535 21.36958981 C24.66003988 25.57778322 28.69181986 29.59943138 32.75469589 33.61177731 C36.02212883 36.85308358 39.06932023 40.20134856 42.04766464 43.70528316 C45.07254957 47.07728603 48.32304254 50.21943097 51.5449791 53.40181637 C54.94494032 56.77612961 58.14162357 60.25525496 61.24688339 63.90450191 C63.94734533 66.95101847 66.8771585 69.76129478 69.77422714 72.61934566 C71.71625012 74.58921127 73.53453135 76.6018195 75.32891464 78.70528316 C78.65502772 82.5883268 82.25677995 86.16296034 85.89336777 89.75020504 C89.24481534 93.07383977 92.38647412 96.51606366 95.45000839 100.10372066 C97.50889823 102.46743316 99.70424002 104.6487805 101.95391464 106.83028316 C100.46977735 110.31682792 98.49177412 112.47219389 95.76641464 115.08028316 C92.99277199 117.78819969 90.32286049 120.48845927 87.82891464 123.45528316 C84.25425849 127.63410656 80.3583356 131.46366827 76.45391464 135.33028316 C72.02353602 139.71784585 67.71084407 144.10815034 63.68828964 148.87715816 C60.93464696 151.97810713 57.95286243 154.85149947 55.00201035 157.76265621 C51.75325119 160.98458921 48.72917485 164.32404277 45.76250839 167.80293941 C43.58432972 170.2445695 41.28143457 172.53076348 38.95391464 174.83028316 C36.04337663 177.70585976 33.22967443 180.5890241 30.57891464 183.70528316 C27.53957992 187.26317736 24.28005373 190.54443928 20.95391464 193.83028316 C16.40349254 198.33097771 12.09248561 202.94475061 7.95391464 207.83028316 C6.643616 209.33220651 5.33113817 210.83223166 4.01641464 212.33028316 C3.4298912 213.00059566 2.84336777 213.67090816 2.23907089 214.36153316 C1.81496933 214.84622066 1.39086777 215.33090816 0.95391464 215.83028316 C-2.37006598 215.24607795 -4.00407607 214.24611255 -6.37439346 211.86946774 C-7.01095367 211.23847668 -7.64751389 210.60748562 -8.3033638 209.95737362 C-8.99028809 209.26123455 -9.67721237 208.56509548 -10.38495255 207.84786129 C-11.11705444 207.11780376 -11.84915634 206.38774624 -12.60344315 205.63556576 C-15.02393688 203.21808281 -17.43351188 200.79002092 -19.84296036 198.36153316 C-21.51817926 196.68325764 -23.19398867 195.00557137 -24.87036514 193.32845211 C-28.38193233 189.81228027 -31.88852719 186.29125059 -35.3913002 182.76631832 C-39.89298481 178.23630778 -44.4033425 173.71506041 -48.91697693 169.1969595 C-52.37629189 165.73349883 -55.83276568 162.26721541 -59.28818893 158.7998724 C-60.95119526 157.13114907 -62.61468401 155.46290639 -64.27865219 153.79514217 C-66.59668139 151.47027886 -68.91128223 149.14206036 -71.2247963 146.81270504 C-71.9198175 146.11656597 -72.61483871 145.4204269 -73.33092117 144.70319271 C-73.95620209 144.07220165 -74.581483 143.44121059 -75.22571182 142.79109859 C-75.77359234 142.24024342 -76.32147285 141.68938824 -76.88595581 141.12184048 C-78.04608536 139.83028316 -78.04608536 139.83028316 -78.04608536 138.83028316 C-74.20543329 138.13376203 -70.36427397 137.44011354 -66.52264786 136.74898434 C-64.58227701 136.39930535 -62.64230198 136.04743222 -60.70233536 135.69551754 C-50.11304964 133.79275526 -50.11304964 133.79275526 -45.20233536 133.23262691 C-42.18725282 133.17545583 -42.18725282 133.17545583 -41.04608536 131.83028316 C-39.05734029 131.4234514 -37.05715021 131.0723686 -35.05389786 130.74434566 C-33.80141251 130.53745113 -32.54892715 130.3305566 -31.2584877 130.11739254 C-29.89603352 129.89660754 -28.53356577 129.67590627 -27.17108536 129.45528316 C-25.78122199 129.22708508 -24.39141094 128.99856806 -23.00165176 128.76973629 C-15.0949855 127.47146621 -7.18155612 126.21976762 0.73711777 124.99703121 C9.12324419 123.68096697 17.47265634 122.15258976 25.82354355 120.63106441 C31.16204617 119.66307312 36.49725913 118.73305149 41.86407089 117.93575191 C47.90492316 117.02441644 53.91436605 115.96631523 59.92657089 114.88497066 C60.90513046 114.70907909 61.88369003 114.53318752 62.89190292 114.3519659 C66.97512937 113.6166493 71.05796429 112.87921999 75.14019394 112.13838863 C78.1517819 111.59255165 81.16411222 111.05097838 84.17657089 110.50997066 C85.09946411 110.34125454 86.02235733 110.17253841 86.97321701 109.99870968 C87.83188873 109.84499905 88.69056046 109.69128841 89.57525253 109.53291988 C90.32657959 109.39683315 91.07790665 109.26074642 91.85200119 109.12053585 C93.95391464 108.83028316 93.95391464 108.83028316 97.95391464 108.83028316 C97.95391464 108.17028316 97.95391464 107.51028316 97.95391464 106.83028316 C96.69417831 106.70121578 95.43444199 106.5721484 94.13653183 106.43916988 C88.73614104 105.8376197 83.39087148 104.98104744 78.03203964 104.08809566 C77.01019577 103.91905727 75.9883519 103.75001888 74.93554306 103.57585812 C72.7839074 103.21904401 70.63248192 102.86096037 68.48125839 102.50166988 C65.22811987 101.95931857 61.97389261 101.42388624 58.71953964 100.88887691 C49.34697584 99.335196 40.06241115 97.72844849 30.83135605 95.47383785 C25.44715941 94.26963436 19.98256854 93.61213581 14.51641464 92.89278316 C4.98672594 91.58582559 -4.4767724 90.11309292 -13.92938614 88.33492184 C-21.88058686 86.84085965 -29.85467678 85.51114995 -37.8419838 84.22481441 C-42.12472931 83.52595022 -46.36896811 82.78752459 -50.59686661 81.80684566 C-56.37614642 80.47668884 -62.23771559 79.75072823 -68.11249161 78.97481441 C-68.96456192 78.8549316 -69.81663223 78.73504879 -70.69452286 78.61153316 C-71.84186905 78.45781246 -71.84186905 78.45781246 -73.01239395 78.30098629 C-75.04608536 77.83028316 -75.04608536 77.83028316 -78.04608536 75.83028316 C-68.2212129 65.8887022 -58.38195592 55.96155904 -48.5258255 46.05096245 C-43.9500504 41.44905138 -39.37905909 36.84258734 -34.8185463 32.22554684 C-30.42038397 27.77321002 -26.01025497 23.33306242 -21.59142685 18.90123844 C-19.90448758 17.20503328 -18.22196822 15.50442089 -16.54389572 13.79944324 C-14.19959526 11.4190491 -11.84031724 9.05456187 -9.47674942 6.69332027 C-8.43233688 5.62194317 -8.43233688 5.62194317 -7.3668251 4.52892208 C-6.72185074 3.89082104 -6.07687637 3.25271999 -5.41235733 2.59528255 C-4.57721289 1.75322466 -4.57721289 1.75322466 -3.72519684 0.8941555 C-2.04608536 -0.16971684 -2.04608536 -0.16971684 0 0 Z " fill="#AD68FC" transform="translate(299.046085357666,310.169716835022)"/>
<path d="M0 0 C3.32740382 0.58402593 4.95855443 1.58586259 7.32830811 3.96754456 C7.96486832 4.59998077 8.60142853 5.23241699 9.25727844 5.88401794 C9.94420273 6.58172806 10.63112701 7.27943817 11.33886719 7.99829102 C12.07096909 8.72995483 12.80307098 9.46161865 13.55735779 10.2154541 C15.97770784 12.63789573 18.38725619 15.07079377 20.796875 17.50390625 C22.47202219 19.18464805 24.14783254 20.86472913 25.82427979 22.54417419 C30.23677959 26.96813327 34.6401967 31.40102732 39.04180908 35.83581543 C43.53416087 40.35884452 48.03500767 44.87340244 52.53515625 49.38867188 C61.36512478 58.25082369 70.18581683 67.12214955 79 76 C75.56325682 78.29116212 73.30312614 78.61700498 69.23828125 79.26171875 C68.55238419 79.3730162 67.86648712 79.48431366 67.1598053 79.59898376 C65.6654521 79.84079586 64.17056613 80.07933277 62.67523193 80.31500244 C58.60273179 80.95705427 54.53406365 81.62268862 50.46484375 82.28515625 C49.61194763 82.42334778 48.75905151 82.56153931 47.88031006 82.70391846 C39.21628895 84.11351285 30.57366569 85.63861325 21.93081665 87.17181396 C10.17898288 89.25559683 -1.56953299 91.30163999 -13.375 93.0625 C-34.28341955 96.18351368 -55.13873194 99.87372873 -75.84375 104.140625 C-76.51100098 104.27807129 -77.17825195 104.41551758 -77.86572266 104.55712891 C-79.43913128 104.88361749 -81.01158697 105.21470652 -82.58349609 105.54833984 C-83.46086426 105.73090332 -84.33823242 105.9134668 -85.2421875 106.1015625 C-86.03995605 106.26994629 -86.83772461 106.43833008 -87.65966797 106.61181641 C-91.14969795 107.19069682 -94.46979129 107.13074847 -98 107 C-98 107.66 -98 108.32 -98 109 C-97.16412354 109.11537109 -96.32824707 109.23074219 -95.46704102 109.34960938 C-87.89329499 110.4111191 -80.35145335 111.58796934 -72.80883789 112.8527832 C-59.24053444 115.12115505 -45.72735729 116.9746567 -32 118 C-31.67 118.99 -31.34 119.98 -31 121 C-30.28923813 121.04649185 -29.57847626 121.0929837 -28.84617615 121.1408844 C-20.99640891 121.7166967 -13.34318664 122.83772602 -5.59765625 124.21484375 C-4.35809677 124.4306459 -3.11853729 124.64644806 -1.84141541 124.86878967 C1.42399795 125.4380399 4.68860257 126.01164552 7.95281982 126.58770752 C12.53620191 127.39551152 17.12099283 128.19527637 21.70570374 128.99549866 C24.13477132 129.41993646 26.56353571 129.84611481 28.9919281 130.2743988 C36.64717087 131.61794425 44.31524172 132.8383555 52 134 C56.21061193 134.65313985 60.4184825 135.32101609 64.625 136 C65.68589844 136.165 66.74679687 136.33 67.83984375 136.5 C68.85433594 136.665 69.86882812 136.83 70.9140625 137 C71.8210791 137.144375 72.7280957 137.28875 73.66259766 137.4375 C76 138 76 138 79 140 C69.17512755 149.94158097 59.33587057 159.86872413 49.47974014 169.77932072 C44.90396504 174.38123179 40.33297373 178.98769583 35.77246094 183.60473633 C31.37429861 188.05707314 26.96416961 192.49722074 22.54534149 196.92904472 C20.85840222 198.62524989 19.17588286 200.32586228 17.49781036 202.03083992 C15.1535099 204.41123407 12.79423188 206.77572129 10.43066406 209.13696289 C9.38625153 210.20834 9.38625153 210.20834 8.32073975 211.30136108 C7.3532782 212.25851265 7.3532782 212.25851265 6.36627197 213.23500061 C5.53112753 214.0770585 5.53112753 214.0770585 4.67911148 214.93612766 C3 216 3 216 0.90410995 215.78047848 C-1.74534403 214.69448982 -2.96385345 213.12160115 -4.8125 210.9375 C-8.94917828 206.1786106 -13.18380845 201.53454146 -17.5 196.9375 C-18.15073486 196.24325928 -18.80146973 195.54901855 -19.47192383 194.83374023 C-23.59712979 190.44820321 -27.80432036 186.1629083 -32.09375 181.9375 C-34.58473236 179.40568186 -36.87695376 176.72688728 -39.1875 174.03125 C-41.2109288 171.76361428 -43.33653347 169.6342305 -45.5 167.5 C-48.18326093 164.85269566 -50.75256901 162.18903057 -53.1875 159.3125 C-56.59160003 155.33440652 -60.28126657 151.67999662 -64 148 C-68.25347574 143.79073918 -72.36380656 139.55975275 -76.23046875 134.98828125 C-78.99518212 131.88179315 -81.98147983 128.99793356 -84.94067383 126.07885742 C-88.29172281 122.75564203 -91.4329364 119.31377809 -94.49609375 115.7265625 C-96.55498359 113.36285001 -98.75032538 111.18150266 -101 109 C-99.66000502 105.993182 -98.20154709 104.00237391 -95.8125 101.75 C-93.32547737 99.33957971 -90.99359193 96.88824786 -88.75 94.25 C-85.81720359 90.84161498 -82.69926712 87.65601186 -79.5 84.5 C-76.40507019 81.4466338 -73.38065643 78.37676221 -70.5625 75.0625 C-67.54647173 71.523209 -64.30552099 68.26505555 -61 65 C-57.71532009 61.75548124 -54.49265996 58.52077642 -51.5 55 C-48.02523478 50.91204091 -44.22049188 47.19327163 -40.40673828 43.42626953 C-37.02919139 40.07417354 -33.85751104 36.61785444 -30.7734375 32.9921875 C-27.80672019 29.65953149 -24.58707809 26.57998349 -21.4140625 23.4453125 C-18.71631684 20.71264456 -16.21592297 17.8590588 -13.72265625 14.94140625 C-11.20907434 12.10863934 -8.49855825 9.48790104 -5.80078125 6.83203125 C-3.68853476 4.68312973 -1.80733925 2.40978566 0 0 Z " fill="#A864F7" transform="translate(536,310)"/>
<path d="M0 0 C38.28 0 76.56 0 116 0 C116 38.28 116 76.56 116 116 C112.44989206 114.22494603 111.36771112 113.5674175 109.0625 110.6875 C105.71149795 106.63102383 102.23551009 102.99377986 98.125 99.6875 C95.69724439 97.71070154 93.7086657 95.57742341 91.6875 93.1875 C88.54448047 89.48942183 85.1265877 86.35953598 81.40625 83.25 C79.37151316 81.34738893 77.61840541 79.43935128 75.81236267 77.32823181 C72.23232325 73.21346272 68.46675939 69.33824635 64.59594727 65.49829102 C63.892668 64.79647202 63.18938873 64.09465302 62.46479797 63.37156677 C60.95291372 61.86345965 59.43987639 60.35650773 57.92578316 58.85061836 C55.53266908 56.47035018 53.1427654 54.0868996 50.75364685 51.70262146 C45.69274209 46.65309075 40.62789464 41.60752618 35.5625 36.5625 C29.66737899 30.69095892 23.77387368 24.81781479 17.88453484 18.94047356 C15.52437626 16.58681984 13.16123971 14.23618364 10.79798889 11.88563538 C9.36461013 10.45588583 7.93136973 9.02599756 6.49829102 7.59594727 C5.83603516 6.93885773 5.1737793 6.28176819 4.49145508 5.60476685 C2.97521075 4.08870195 1.48446269 2.54719751 0 1 C0 0.67 0 0.34 0 0 Z " fill="#AF69FE" transform="translate(301,529)"/>
<path d="M0 0 C38.28 0 76.56 0 116 0 C112.42893089 4.1662473 109.03435905 8.09118491 105.1918335 11.94187927 C104.27774719 12.86023056 103.36366089 13.77858185 102.421875 14.72476196 C101.426812 15.71947559 100.43169296 16.71413317 99.43652344 17.70874023 C98.37465945 18.77360108 97.31299916 19.83866509 96.25152588 20.90391541 C93.38649004 23.77773335 90.51826727 26.64834943 87.64915752 29.51809955 C85.85653005 31.31143983 84.0646173 33.10549108 82.27295685 34.89979744 C76.02270881 41.1592736 69.76990661 47.41618498 63.51464844 53.6706543 C57.68076331 59.50393652 51.8525025 65.34279716 46.02679801 71.18424839 C41.02132611 76.20276826 36.01203454 81.21745338 30.99971414 86.22913319 C28.00721986 89.22137204 25.01631222 92.21515651 22.02922821 95.21279716 C19.22648072 98.0251816 16.41903197 100.8327841 13.60781097 103.63669777 C12.57485658 104.66860141 11.5436234 105.70223119 10.51420593 106.73766327 C9.11415099 108.14537064 7.70738335 109.54639251 6.30023193 110.94700623 C5.12004297 112.12801234 5.12004297 112.12801234 3.91601181 113.33287716 C2 115 2 115 0 115 C0 77.05 0 39.1 0 0 Z " fill="#C375FE" transform="translate(419,529)"/>
<path d="M0 0 C0 37.95 0 75.9 0 115 C-38.28 115 -76.56 115 -116 115 C-112.42893089 110.8337527 -109.03435905 106.90881509 -105.1918335 103.05812073 C-104.27774719 102.13976944 -103.36366089 101.22141815 -102.421875 100.27523804 C-101.426812 99.28052441 -100.43169296 98.28586683 -99.43652344 97.29125977 C-98.37465945 96.22639892 -97.31299916 95.16133491 -96.25152588 94.09608459 C-93.38649004 91.22226665 -90.51826727 88.35165057 -87.64915752 85.48190045 C-85.85653005 83.68856017 -84.0646173 81.89450892 -82.27295685 80.10020256 C-76.02270881 73.8407264 -69.76990661 67.58381502 -63.51464844 61.3293457 C-57.68076331 55.49606348 -51.8525025 49.65720284 -46.02679801 43.81575161 C-41.02132611 38.79723174 -36.01203454 33.78254662 -30.99971414 28.77086681 C-28.00721986 25.77862796 -25.01631222 22.78484349 -22.02922821 19.78720284 C-19.22648072 16.9748184 -16.41903197 14.1672159 -13.60781097 11.36330223 C-12.57485658 10.33139859 -11.5436234 9.29776881 -10.51420593 8.26233673 C-9.11415099 6.85462936 -7.70738335 5.45360749 -6.30023193 4.05299377 C-5.51343929 3.26565637 -4.72664665 2.47831896 -3.91601181 1.66712284 C-2 0 -2 0 0 0 Z " fill="#AD68FB" transform="translate(417,192)"/>
<path d="M0 0 C3.82066977 1.91033488 5.76139356 3.51218661 8.73297119 6.48573303 C9.42413454 7.17327475 9.42413454 7.17327475 10.12926078 7.87470621 C11.66941395 9.40923109 13.2023248 10.95078973 14.73535156 12.49243164 C15.83895387 13.59496089 16.94298903 14.69705701 18.04742432 15.79875183 C21.04342345 18.78990476 24.03313732 21.78726839 27.0216341 24.78591466 C30.1466982 27.91975822 33.27702903 31.0483327 36.40667725 34.17759705 C41.65897471 39.43083089 46.90738473 44.68792328 52.15332031 49.94750977 C58.22691043 56.03684554 64.30573171 62.12091855 70.38756585 68.20201975 C76.2312725 74.04511716 82.07212207 79.89106133 87.91136932 85.73861504 C90.4002318 88.23101686 92.88994971 90.72255959 95.38031769 93.21345711 C98.3079823 96.14212252 101.23309645 99.07331161 104.15621185 102.00651741 C105.23253165 103.0857701 106.3097115 104.16416584 107.38778687 105.24166489 C108.85250519 106.70589624 110.31413445 108.17314043 111.77496338 109.64125061 C112.59569462 110.46365769 113.41642586 111.28606478 114.26202774 112.13339329 C116 114 116 114 116 115 C77.72 115 39.44 115 0 115 C0 77.05 0 39.1 0 0 Z " fill="#C274FD" transform="translate(419,192)"/>
<path d="M0 0 C4.64451761 -0.147445 8.74843098 -0.18594212 13.25 1 C20.5651272 2.79041575 28.41940296 2.94731986 35.625 0.6875 C39.54590465 -0.34500558 41.44027529 0.43745236 44.9855957 2.29418945 C51.07956554 5.20844364 56.976499 6.47990693 63.60546875 7.60546875 C64.76951736 7.81561111 65.93356598 8.02575348 67.13288879 8.24226379 C70.81546942 8.9043929 74.50116111 9.54666014 78.1875 10.1875 C81.88370202 10.84320388 85.57914228 11.50300901 89.27424622 12.16487122 C91.56290898 12.57340114 93.8523369 12.97767521 96.1426239 13.3769989 C101.83244733 14.37838567 107.4166508 15.51310008 113 17 C112.61501802 23.34037486 112.61501802 23.34037486 109.89283752 26.25999451 C108.98533249 26.9133931 108.07782745 27.56679169 107.14282227 28.23999023 C101.37183588 32.64356278 96.27186095 37.49009939 91.19389153 42.65577888 C89.67260294 44.20312046 88.14469193 45.7436626 86.61512756 47.28282166 C83.38347532 50.53701989 80.15994542 53.79918806 76.9375 57.0625 C73.16800262 60.87929346 69.39519662 64.69270076 65.61398506 68.49789238 C64.10862423 70.01621407 62.6093998 71.54042089 61.1103363 73.06495667 C60.20501663 73.97688278 59.29969696 74.8888089 58.36694336 75.82836914 C57.56961288 76.63617325 56.77228241 77.44397736 55.95079041 78.27626038 C54 80 54 80 52 80 C51.73123047 80.59329102 51.46246094 81.18658203 51.18554688 81.79785156 C49.99709268 84.00540033 48.79257611 85.46542882 47.03125 87.234375 C46.46019531 87.80800781 45.88914062 88.38164063 45.30078125 88.97265625 C44.70652344 89.55917969 44.11226562 90.14570312 43.5 90.75 C42.90574219 91.35199219 42.31148437 91.95398438 41.69921875 92.57421875 C41.12816406 93.14269531 40.55710937 93.71117187 39.96875 94.296875 C39.44732422 94.81604492 38.92589844 95.33521484 38.38867188 95.87011719 C37 97 37 97 35 97 C34.73123047 97.59329102 34.46246094 98.18658203 34.18554688 98.79785156 C32.99709268 101.00540033 31.79257611 102.46542882 30.03125 104.234375 C29.46019531 104.80800781 28.88914062 105.38164063 28.30078125 105.97265625 C27.70652344 106.55917969 27.11226562 107.14570312 26.5 107.75 C25.90574219 108.35199219 25.31148437 108.95398438 24.69921875 109.57421875 C24.12816406 110.14269531 23.55710937 110.71117187 22.96875 111.296875 C22.44732422 111.81604492 21.92589844 112.33521484 21.38867188 112.87011719 C20 114 20 114 18 114 C17.62180351 114.86575574 17.62180351 114.86575574 17.23596668 115.7490015 C15.84369088 118.28467725 14.27226354 119.97375789 12.22453308 122.01597595 C11.04485207 123.19978096 11.04485207 123.19978096 9.84133911 124.40750122 C8.97741547 125.26423431 8.11349182 126.12096741 7.22338867 127.00366211 C6.31429245 127.91305038 5.40519623 128.82243866 4.46855164 129.75938416 C1.97700463 132.25150498 -0.52066248 134.73740939 -3.01946473 137.22225261 C-5.63656939 139.82683694 -8.24799463 142.437103 -10.86003113 145.04676819 C-15.81178796 149.99230729 -20.76861819 154.93272884 -25.72729272 159.8713308 C-31.35201313 165.47376727 -36.9711228 171.08181646 -42.58973277 176.69037998 C-52.20036414 186.28363654 -61.81520464 195.87265539 -71.43475342 205.45697021 C-72.62712364 206.64500496 -72.62712364 206.64500496 -73.84358215 207.85704041 C-74.93797828 208.94373425 -74.93797828 208.94373425 -76.05448341 210.05238152 C-77.2375699 211.23674618 -78.41201001 212.4299454 -79.57025719 213.63861275 C-81.74546152 215.90423119 -82.94863963 216.98287988 -86 218 C-91.60212686 218 -94.99800099 214.2533022 -98.7902832 210.46850586 C-99.71086014 209.55423325 -100.63143707 208.63996063 -101.57991028 207.69798279 C-102.57045654 206.70385806 -103.56074078 205.70947219 -104.55078125 204.71484375 C-105.57467432 203.69229877 -106.59886406 202.67005078 -107.62333679 201.64808655 C-109.76232974 199.51203404 -111.89768318 197.37242589 -114.03051758 195.23022461 C-116.76883425 192.48047063 -119.51609024 189.73985068 -122.26609516 187.00179195 C-124.37915909 184.89593887 -126.4874564 182.78536572 -128.5943203 180.67331123 C-129.60599021 179.66030491 -130.61915408 178.64878835 -131.63381386 177.63877678 C-133.04626742 176.2313802 -134.45166538 174.81691321 -135.85668945 173.40209961 C-136.65879349 172.59840439 -137.46089752 171.79470917 -138.28730774 170.96665955 C-140 169 -140 169 -140 167 C-140.58136719 166.74476563 -141.16273438 166.48953125 -141.76171875 166.2265625 C-144.22815481 164.87497276 -145.84842854 163.38307306 -147.8125 161.375 C-148.50730469 160.66472656 -149.20210937 159.95445312 -149.91796875 159.22265625 C-151.87861607 157.12958247 -153.7605018 154.99119301 -155.625 152.8125 C-157.67440608 150.42461735 -159.56052564 148.5328953 -162 146.5 C-164.37280582 144.52266182 -166.13535776 142.76540914 -168.10180664 140.43774414 C-172.31174987 135.57246949 -176.81780763 131.03834958 -181.37109375 126.49609375 C-182.25225357 125.6139772 -183.13341339 124.73186066 -184.04127502 123.82301331 C-186.3657675 121.49767191 -188.69265907 119.17476382 -191.02038574 116.85266113 C-192.43644678 115.43855176 -193.85054321 114.02250879 -195.26391602 112.60571289 C-198.00528256 109.8581328 -200.75013034 107.11407894 -203.49609375 104.37109375 C-204.32966904 103.53549423 -205.16324432 102.69989471 -206.02207947 101.838974 C-210.33659296 97.54151058 -214.71702783 93.39584991 -219.35409546 89.44708252 C-221.49942152 87.56090761 -223.34925819 85.49565712 -225.1875 83.3125 C-227.91624596 80.14780054 -230.70130002 77.57710936 -234 75 C-234 74.34 -234 73.68 -234 73 C-234.99 72.67 -235.98 72.34 -237 72 C-238.40234375 70.5390625 -238.40234375 70.5390625 -239.9375 68.625 C-242.95983053 65.05661815 -246.2139059 61.87109524 -249.6875 58.75 C-257.35111233 51.84064209 -264.94862108 44.7491547 -271.5625 36.8125 C-275.08147344 32.61243493 -279.33817243 29.50144855 -283.7421875 26.2734375 C-286.48651654 23.51011656 -286.92604241 21.85635987 -287 18 C-285 16 -285 16 -282.4375 15.8125 C-280 16 -280 16 -279 17 C-277.33382885 17.04063832 -275.66611905 17.042721 -274 17 C-277.18762365 19.12508244 -279.26512223 19.5020163 -283 20 C-273.27911104 29.76758763 -263.55245048 39.52939499 -253.8190794 49.28454494 C-249.29998467 53.81409077 -244.78277487 58.34548402 -240.26977539 62.88110352 C-235.91697036 67.25558954 -231.55934227 71.62521636 -227.19828224 75.99147224 C-225.5327146 77.66074417 -223.86891244 79.33177954 -222.20688438 81.00457573 C-219.88430892 83.34160287 -217.55561734 85.67236323 -215.2253418 88.00170898 C-214.53482224 88.6994191 -213.84430267 89.39712921 -213.13285828 90.11598206 C-212.49767273 90.74841827 -211.86248718 91.38085449 -211.20805359 92.03245544 C-210.38258797 92.86068644 -210.38258797 92.86068644 -209.54044628 93.70564938 C-207.91461856 95.2330057 -207.91461856 95.2330057 -205 96 C-204.71125 95.360625 -204.4225 94.72125 -204.125 94.0625 C-203 92 -203 92 -201 91 C-200.34 92.98 -199.68 94.96 -199 97 C-144.55 97.495 -144.55 97.495 -89 98 C-89 98.33 -89 98.66 -89 99 C-145.43 99.495 -145.43 99.495 -203 100 C-190.233125 112.766875 -177.46625 125.53375 -164.3125 138.6875 C-145.875 157.125 -127.4375 175.5625 -109 194 C-107.65421875 195.3303125 -107.65421875 195.3303125 -106.28125 196.6875 C-103.99353868 199.00654983 -102.03347023 201.45816221 -100 204 C-96.19851569 208.00696995 -92.23716455 211.36814467 -88 215 C-88 176.72 -88 138.44 -88 99 C-85.60469802 97.80234901 -84.11974493 97.87014461 -81.44506836 97.86196899 C-80.48599579 97.85651566 -79.52692322 97.85106232 -78.53878784 97.84544373 C-76.95531052 97.84388023 -76.95531052 97.84388023 -75.33984375 97.84228516 C-74.23085724 97.83720444 -73.12187073 97.83212372 -71.97927856 97.82688904 C-69.56530555 97.81616902 -67.15132249 97.80755528 -64.73733521 97.80076981 C-60.92241144 97.78901601 -57.10760269 97.76957373 -53.29272461 97.74765015 C-42.444209 97.68590493 -31.59571305 97.6316667 -20.74707031 97.59863281 C-14.11815407 97.57835915 -7.48943 97.54250435 -0.86062622 97.49787521 C1.67200261 97.48366368 4.20466848 97.47498125 6.73733521 97.47182083 C10.27172955 97.46694255 13.80556243 97.44386499 17.33984375 97.41650391 C18.3954953 97.41951004 19.45114685 97.42251617 20.53878784 97.4256134 C21.49786041 97.41452042 22.45693298 97.40342743 23.44506836 97.39199829 C24.28130234 97.38868814 25.11753632 97.385378 25.97911072 97.38196754 C26.64600418 97.25591825 27.31289764 97.12986897 28 97 C28.66 96.01 29.32 95.02 30 94 C30.59135365 94.22124511 31.18270729 94.44249022 31.79198074 94.67043972 C34.00932245 95.24674288 34.00932245 95.24674288 35.66349411 93.95174503 C36.21288273 93.39774745 36.76227135 92.84374987 37.32830811 92.27296448 C37.96486832 91.64327759 38.60142853 91.0135907 39.25727844 90.36482239 C39.94420273 89.65992172 40.63112701 88.95502106 41.33886719 88.22875977 C42.07096909 87.497388 42.80307098 86.76601624 43.55735779 86.01248169 C45.98256302 83.5837835 48.38956603 81.13783379 50.796875 78.69140625 C52.47158607 77.00737326 54.14740197 75.32443832 55.82427979 73.64256287 C60.24124545 69.20647909 64.64299404 64.75558645 69.04180908 60.30151367 C73.53054986 55.76168515 78.03342535 51.23592556 82.53515625 46.70898438 C91.3707118 37.81975608 100.19075443 28.91529826 109 20 C107.9937986 19.79961624 107.9937986 19.79961624 106.9672699 19.59518433 C105.63466881 19.32933029 105.63466881 19.32933029 104.27514648 19.05810547 C103.39809555 18.8832663 102.52104462 18.70842712 101.61741638 18.52828979 C99.27449163 18.05540239 96.9354397 17.56789189 94.59765625 17.0703125 C85.59955286 15.18011357 76.60434992 13.59607823 67.5 12.3125 C53.05126508 10.2720298 38.68712561 7.75312326 24.3125 5.25 C23.1147998 5.04146393 21.91709961 4.83292786 20.68310547 4.61807251 C13.78796479 3.4164442 6.89358176 2.21053899 0 1 C0 0.67 0 0.34 0 0 Z M-86 99 C-86 136.95 -86 174.9 -86 214 C-82.17933023 212.08966512 -80.23860644 210.48781339 -77.26702881 207.51426697 C-76.80625324 207.05590582 -76.34547768 206.59754467 -75.87073922 206.12529379 C-74.33058605 204.59076891 -72.7976752 203.04921027 -71.26464844 201.50756836 C-70.16104613 200.40503911 -69.05701097 199.30294299 -67.95257568 198.20124817 C-64.95657655 195.21009524 -61.96686268 192.21273161 -58.9783659 189.21408534 C-55.8533018 186.08024178 -52.72297097 182.9516673 -49.59332275 179.82240295 C-44.34102529 174.56916911 -39.09261527 169.31207672 -33.84667969 164.05249023 C-27.77308957 157.96315446 -21.69426829 151.87908145 -15.61243415 145.79798025 C-9.7687275 139.95488284 -3.92787793 134.10893867 1.91136932 128.26138496 C4.4002318 125.76898314 6.88994971 123.27744041 9.38031769 120.78654289 C12.3079823 117.85787748 15.23309645 114.92668839 18.15621185 111.99348259 C19.23253165 110.9142299 20.3097115 109.83583416 21.38778687 108.75833511 C22.85250519 107.29410376 24.31413445 105.82685957 25.77496338 104.35874939 C26.59569462 103.53634231 27.41642586 102.71393522 28.26202774 101.86660671 C30.11357315 100.30309495 30.11357315 100.30309495 30 99 C-8.28 99 -46.56 99 -86 99 Z " fill="#150B21" transform="translate(505,430)"/>
<path d="M0 0 C0.66 0.33 1.32 0.66 2 1 C0.52278578 4.45201639 -1.43794001 6.64961936 -4.125 9.25 C-4.84945312 9.95640625 -5.57390625 10.6628125 -6.3203125 11.390625 C-6.87460938 11.92171875 -7.42890625 12.4528125 -8 13 C-0.6056826 14.81529887 6.73535577 16.32098632 14.26953125 17.41015625 C18.76622107 18.12115119 23.22102516 18.99675352 27.6875 19.875 C37.0691916 21.70921609 46.48569596 23.21038394 55.94213867 24.60498047 C60.70053243 25.31193335 65.42596792 26.05650788 70.13671875 27.03515625 C75.10706367 28.06209933 80.09019896 28.69469598 85.125 29.3125 C92.86082791 30.31356099 100.44512774 31.63874236 108.0625 33.3125 C120.3879807 36.01766092 132.80919488 37.99525695 145.27172852 39.94458008 C152.56840314 41.0899847 159.81586426 42.25964106 167 44 C167 44.66 167 45.32 167 46 C155.18114322 48.28958373 143.34980355 50.50102355 131.5 52.625 C130.35692383 52.83084717 129.21384766 53.03669434 128.03613281 53.2487793 C122.58206053 54.22148259 117.12804276 55.14358903 111.6484375 55.9609375 C103.41892256 57.2059154 95.25818338 58.80837646 87.08935547 60.39550781 C78.67103315 62.02694993 70.28281327 63.41704652 61.77197266 64.49951172 C55.19841617 65.37173119 48.66530305 66.47028884 42.125 67.5625 C40.7565289 67.78592054 39.38803937 68.00922821 38.01953125 68.23242188 C36.73691406 68.44576172 35.45429688 68.65910156 34.1328125 68.87890625 C32.97668457 69.0704126 31.82055664 69.26191895 30.62939453 69.45922852 C28.08549258 69.73111888 28.08549258 69.73111888 27 71 C24.08449142 71.55190697 21.18129372 72.04750718 18.25 72.5 C17.39559326 72.6338208 16.54118652 72.7676416 15.66088867 72.90551758 C8.78451182 73.94997335 1.94857305 74.6382251 -5 75 C-4.67 74.01 -4.34 73.02 -4 72 C-1.734375 71.15625 -1.734375 71.15625 1.25 70.5 C2.87615234 70.12875 2.87615234 70.12875 4.53515625 69.75 C5.67855469 69.5025 6.82195312 69.255 8 69 C19.30935334 66.93952286 19.30935334 66.93952286 30 63 C31.2820055 60.59969175 31.2820055 60.59969175 32 58 C38.26293973 52.75320025 45.45904252 49.03102563 53 46 C54.155 45.4225 55.31 44.845 56.5 44.25 C60.81244839 42.70983986 64.47613519 42.72302868 69 43 C69 42.34 69 41.68 69 41 C72.7850562 40.80468571 75.39802961 41.32951103 78.875 42.8125 C79.75027344 43.17601562 80.62554687 43.53953125 81.52734375 43.9140625 C83.51983851 44.78912339 85.48401214 45.72851505 87.4375 46.6875 C92.24161308 48.4574364 96.91569597 48.73337284 102 49 C102 49.66 102 50.32 102 51 C105.20899141 50.88928305 108.41689709 50.75885687 111.625 50.625 C112.52863281 50.5940625 113.43226563 50.563125 114.36328125 50.53125 C119.30313091 50.31490622 123.32900919 49.73194041 128 48 C130.28359965 47.57865246 132.57619294 47.20340101 134.875 46.875 C136.02742187 46.70742188 137.17984375 46.53984375 138.3671875 46.3671875 C139.23601562 46.24601562 140.10484375 46.12484375 141 46 C141 45.34 141 44.68 141 44 C140.13375 44.061875 139.2675 44.12375 138.375 44.1875 C135 44 135 44 132.4453125 42.5859375 C127.8497804 40.47053383 123.49623282 40.00060085 118.5 39.4375 C117.47060303 39.31383057 116.44120605 39.19016113 115.38061523 39.06274414 C105.36105656 37.92022157 95.31003647 37.27007911 85.2421875 36.73413086 C76.27123123 36.22512765 68.73666654 35.74581462 61 31 C58.27821788 30.23043167 55.63657824 29.57166047 52.875 29 C51.69671631 28.74899536 51.69671631 28.74899536 50.49462891 28.49291992 C38.93584495 26.0883721 27.36876256 24.04214608 15.5625 23.5 C6.34580951 23.03824196 -2.78666324 21.38044627 -11 17 C-12 14 -12 14 -11.0625 11.25 C-8.35040512 6.97639595 -4.89553162 4.17057843 -1 1 C-0.67 0.67 -0.34 0.34 0 0 Z " fill="#040206" transform="translate(230,373)"/>
<path d="M0 0 C4.64451761 -0.147445 8.74843098 -0.18594212 13.25 1 C20.5651272 2.79041575 28.41940296 2.94731986 35.625 0.6875 C39.54590465 -0.34500558 41.44027529 0.43745236 44.9855957 2.29418945 C51.07956554 5.20844364 56.976499 6.47990693 63.60546875 7.60546875 C64.76951736 7.81561111 65.93356598 8.02575348 67.13288879 8.24226379 C70.81546942 8.9043929 74.50116111 9.54666014 78.1875 10.1875 C81.88370202 10.84320388 85.57914228 11.50300901 89.27424622 12.16487122 C91.56290898 12.57340114 93.8523369 12.97767521 96.1426239 13.3769989 C101.83244733 14.37838567 107.4166508 15.51310008 113 17 C112.61501802 23.34037486 112.61501802 23.34037486 109.89283752 26.25999451 C108.98533249 26.9133931 108.07782745 27.56679169 107.14282227 28.23999023 C101.37183588 32.64356278 96.27186095 37.49009939 91.19389153 42.65577888 C89.67260294 44.20312046 88.14469193 45.7436626 86.61512756 47.28282166 C83.38347532 50.53701989 80.15994542 53.79918806 76.9375 57.0625 C73.16800262 60.87929346 69.39519662 64.69270076 65.61398506 68.49789238 C64.10862423 70.01621407 62.6093998 71.54042089 61.1103363 73.06495667 C60.20501663 73.97688278 59.29969696 74.8888089 58.36694336 75.82836914 C57.56961288 76.63617325 56.77228241 77.44397736 55.95079041 78.27626038 C54 80 54 80 52 80 C51.5968457 80.88993652 51.5968457 80.88993652 51.18554688 81.79785156 C49.99709268 84.00540033 48.79257611 85.46542882 47.03125 87.234375 C46.46019531 87.80800781 45.88914062 88.38164063 45.30078125 88.97265625 C44.70652344 89.55917969 44.11226562 90.14570312 43.5 90.75 C42.90574219 91.35199219 42.31148437 91.95398438 41.69921875 92.57421875 C41.12816406 93.14269531 40.55710937 93.71117187 39.96875 94.296875 C39.44732422 94.81604492 38.92589844 95.33521484 38.38867188 95.87011719 C37 97 37 97 35 97 C34.5968457 97.88993652 34.5968457 97.88993652 34.18554688 98.79785156 C32.99709268 101.00540033 31.79257611 102.46542882 30.03125 104.234375 C29.17466797 105.09482422 29.17466797 105.09482422 28.30078125 105.97265625 C27.70652344 106.55917969 27.11226562 107.14570312 26.5 107.75 C25.90574219 108.35199219 25.31148437 108.95398438 24.69921875 109.57421875 C24.12816406 110.14269531 23.55710937 110.71117187 22.96875 111.296875 C22.44732422 111.81604492 21.92589844 112.33521484 21.38867188 112.87011719 C20 114 20 114 18 114 C17.74786901 114.5771705 17.49573801 115.15434099 17.23596668 115.7490015 C15.84369088 118.28467725 14.27226354 119.97375789 12.22453308 122.01597595 C11.43807907 122.80517929 10.65162506 123.59438263 9.84133911 124.40750122 C8.97741547 125.26423431 8.11349182 126.12096741 7.22338867 127.00366211 C6.31429245 127.91305038 5.40519623 128.82243866 4.46855164 129.75938416 C1.97700463 132.25150498 -0.52066248 134.73740939 -3.01946473 137.22225261 C-5.63656939 139.82683694 -8.24799463 142.437103 -10.86003113 145.04676819 C-15.81178796 149.99230729 -20.76861819 154.93272884 -25.72729272 159.8713308 C-31.35201313 165.47376727 -36.9711228 171.08181646 -42.58973277 176.69037998 C-52.20036414 186.28363654 -61.81520464 195.87265539 -71.43475342 205.45697021 C-72.2296669 206.24899338 -73.02458038 207.04101654 -73.84358215 207.85704041 C-74.5735824 208.58126127 -75.30358265 209.30548214 -76.05570412 210.05164909 C-77.23741996 211.23582952 -78.40845867 212.43096942 -79.55927086 213.64520454 C-82.58233081 216.82637712 -84.57123356 217.69101629 -89 218 C-89 217.34 -89 216.68 -89 216 C-87.02 215.67 -85.04 215.34 -83 215 C-82.92439378 214.43683453 -82.84878756 213.87366905 -82.77089024 213.29343796 C-81.72218856 210.17349673 -79.99511889 208.626477 -77.66575623 206.30499268 C-76.98456312 205.61995466 -76.98456312 205.61995466 -76.28960854 204.92107749 C-74.76578643 203.39231321 -73.23148815 201.87451948 -71.69702148 200.35644531 C-70.60264755 199.26291755 -69.50893371 198.16872885 -68.41583252 197.07392883 C-65.44539457 194.10262914 -62.46578893 191.14067834 -59.4844768 188.18029499 C-56.37077979 185.08533491 -53.26556026 181.98189333 -50.15943909 178.8793335 C-44.2757871 173.00501073 -38.38452864 167.13837799 -32.49051291 161.27445579 C-24.5267116 153.35043658 -16.5746851 145.41461976 -8.62199879 137.47944832 C3.90905047 124.97661928 16.45578337 112.4896502 29 100 C-8.95 99.67 -46.9 99.34 -86 99 C-86 98.67 -86 98.34 -86 98 C-85.4143181 97.99761165 -84.82863621 97.99522329 -84.22520638 97.99276257 C-69.98747396 97.93367825 -55.74990835 97.8581707 -41.51236153 97.76428509 C-34.62723443 97.71928087 -27.74215959 97.67987708 -20.85693359 97.65356445 C-14.2173404 97.62817492 -7.57796098 97.58730172 -0.93850327 97.53681374 C1.59970348 97.52007663 4.13795038 97.50860519 6.67620468 97.50238609 C10.22042125 97.4928193 13.76403546 97.46484918 17.30810547 97.43237305 C18.36689911 97.43380814 19.42569275 97.43524323 20.51657104 97.4367218 C21.47853394 97.42418365 22.44049683 97.41164551 23.43161011 97.39872742 C24.27044172 97.39411845 25.10927334 97.38950949 25.97352409 97.38476086 C26.64226114 97.25778977 27.31099819 97.13081869 28 97 C28.99 95.515 28.99 95.515 30 94 C30.59135365 94.22124511 31.18270729 94.44249022 31.79198074 94.67043972 C34.00932245 95.24674288 34.00932245 95.24674288 35.66349411 93.95174503 C36.21288273 93.39774745 36.76227135 92.84374987 37.32830811 92.27296448 C37.96486832 91.64327759 38.60142853 91.0135907 39.25727844 90.36482239 C39.94420273 89.65992172 40.63112701 88.95502106 41.33886719 88.22875977 C42.07096909 87.497388 42.80307098 86.76601624 43.55735779 86.01248169 C45.98256302 83.5837835 48.38956603 81.13783379 50.796875 78.69140625 C52.47158607 77.00737326 54.14740197 75.32443832 55.82427979 73.64256287 C60.24124545 69.20647909 64.64299404 64.75558645 69.04180908 60.30151367 C73.53054986 55.76168515 78.03342535 51.23592556 82.53515625 46.70898438 C91.3707118 37.81975608 100.19075443 28.91529826 109 20 C108.32919907 19.86641083 107.65839813 19.73282166 106.9672699 19.59518433 C105.63466881 19.32933029 105.63466881 19.32933029 104.27514648 19.05810547 C103.39809555 18.8832663 102.52104462 18.70842712 101.61741638 18.52828979 C99.27449163 18.05540239 96.9354397 17.56789189 94.59765625 17.0703125 C85.59955286 15.18011357 76.60434992 13.59607823 67.5 12.3125 C53.05126508 10.2720298 38.68712561 7.75312326 24.3125 5.25 C23.1147998 5.04146393 21.91709961 4.83292786 20.68310547 4.61807251 C13.78796479 3.4164442 6.89358176 2.21053899 0 1 C0 0.67 0 0.34 0 0 Z " fill="#0E0816" transform="translate(505,430)"/>
<path d="M0 0 C4.64451761 -0.147445 8.74843098 -0.18594212 13.25 1 C20.5651272 2.79041575 28.41940296 2.94731986 35.625 0.6875 C39.54590465 -0.34500558 41.44027529 0.43745236 44.9855957 2.29418945 C51.07956554 5.20844364 56.976499 6.47990693 63.60546875 7.60546875 C64.76951736 7.81561111 65.93356598 8.02575348 67.13288879 8.24226379 C70.81546942 8.9043929 74.50116111 9.54666014 78.1875 10.1875 C81.88370202 10.84320388 85.57914228 11.50300901 89.27424622 12.16487122 C91.56290898 12.57340114 93.8523369 12.97767521 96.1426239 13.3769989 C101.83244733 14.37838567 107.4166508 15.51310008 113 17 C112.6144925 23.34016444 112.6144925 23.34016444 109.89530945 26.25999451 C108.98843887 26.9133931 108.0815683 27.56679169 107.1472168 28.23999023 C100.80368406 33.08054393 95.24176655 38.50218974 89.64453125 44.16015625 C88.60694421 45.20148626 87.56890522 46.24236612 86.53044128 47.28282166 C83.83489312 49.9859054 81.14541254 52.69494433 78.45727539 55.40539551 C75.69855936 58.18479065 72.93397504 60.95833616 70.16992188 63.73242188 C64.77428233 69.14933286 59.38505774 74.57256709 54 80 C53.01 79.505 53.01 79.505 52 79 C52.40839111 78.60208252 52.81678223 78.20416504 53.23754883 77.79418945 C55.10121048 75.97233648 56.95687184 74.14253329 58.8125 72.3125 C59.45509766 71.68666016 60.09769531 71.06082031 60.75976562 70.41601562 C61.38173828 69.80048828 62.00371094 69.18496094 62.64453125 68.55078125 C63.21534424 67.99044189 63.78615723 67.43010254 64.37426758 66.8527832 C66.09335962 65.01653728 66.09335962 65.01653728 67.35083008 62.64916992 C69.02127517 59.96582429 70.77464902 57.98418157 73.01245117 55.76049805 C73.81305466 54.96004562 74.61365814 54.1595932 75.43852234 53.33488464 C76.72772331 52.06116753 76.72772331 52.06116753 78.04296875 50.76171875 C78.9265657 49.88095169 79.81016266 49.00018463 80.72053528 48.09272766 C83.05961741 45.76292417 85.40296038 43.43752174 87.74847412 41.11419678 C90.14520725 38.73799807 92.53622123 36.35605961 94.92773438 33.97460938 C99.61325459 29.31111671 104.30444111 24.65338364 109 20 C108.32919907 19.86641083 107.65839813 19.73282166 106.9672699 19.59518433 C105.63466881 19.32933029 105.63466881 19.32933029 104.27514648 19.05810547 C103.39809555 18.8832663 102.52104462 18.70842712 101.61741638 18.52828979 C99.27449163 18.05540239 96.9354397 17.56789189 94.59765625 17.0703125 C85.59955286 15.18011357 76.60434992 13.59607823 67.5 12.3125 C53.05126508 10.2720298 38.68712561 7.75312326 24.3125 5.25 C23.1147998 5.04146393 21.91709961 4.83292786 20.68310547 4.61807251 C13.78796479 3.4164442 6.89358176 2.21053899 0 1 C0 0.67 0 0.34 0 0 Z " fill="#0A050F" transform="translate(505,430)"/>
<path d="M0 0 C38.28 0 76.56 0 116 0 C116 38.28 116 76.56 116 116 C112 114 112 114 111 112 C111.66 112 112.32 112 113 112 C113.33 75.37 113.66 38.74 114 1 C58.065 1.495 58.065 1.495 1 2 C0.67 1.34 0.34 0.68 0 0 Z " fill="#905AD8" transform="translate(301,529)"/>
<path d="M0 0 C0 3 0 3 -1.14575195 4.45458984 C-1.67128662 4.95168457 -2.19682129 5.4487793 -2.73828125 5.9609375 C-3.31126953 6.51523437 -3.88425781 7.06953125 -4.47460938 7.640625 C-5.08111328 8.21296875 -5.68761719 8.7853125 -6.3125 9.375 C-10.20902278 13.07310829 -13.24540079 16.3633317 -16 21 C-18.08413497 23.37649932 -20.3133129 25.59300514 -22.5625 27.8125 C-23.15224609 28.40998047 -23.74199219 29.00746094 -24.34960938 29.62304688 C-28.74657143 34 -28.74657143 34 -31 34 C-31.400979 34.88993652 -31.400979 34.88993652 -31.81005859 35.79785156 C-33.01584993 38.02933245 -34.2358095 39.4664799 -36.0390625 41.234375 C-36.61914062 41.80800781 -37.19921875 42.38164063 -37.796875 42.97265625 C-38.40015625 43.55917969 -39.0034375 44.14570312 -39.625 44.75 C-40.23601562 45.35199219 -40.84703125 45.95398438 -41.4765625 46.57421875 C-42.97988624 48.05405305 -44.48934856 49.52764676 -46 51 C-46.66 50.67 -47.32 50.34 -48 50 C-40.57142857 40.57142857 -40.57142857 40.57142857 -37 37 C-74.95 36.67 -112.9 36.34 -152 36 C-152 35.67 -152 35.34 -152 35 C-151.4143181 34.99761165 -150.82863621 34.99522329 -150.22520638 34.99276257 C-135.98747396 34.93367825 -121.74990835 34.8581707 -107.51236153 34.76428509 C-100.62723443 34.71928087 -93.74215959 34.67987708 -86.85693359 34.65356445 C-80.2173404 34.62817492 -73.57796098 34.58730172 -66.93850327 34.53681374 C-64.40029652 34.52007663 -61.86204962 34.50860519 -59.32379532 34.50238609 C-55.77957875 34.4928193 -52.23596454 34.46484918 -48.69189453 34.43237305 C-47.63310089 34.43380814 -46.57430725 34.43524323 -45.48342896 34.4367218 C-44.52146606 34.42418365 -43.55950317 34.41164551 -42.56838989 34.39872742 C-41.72955828 34.39411845 -40.89072666 34.38950949 -40.02647591 34.38476086 C-39.35773886 34.25778977 -38.68900181 34.13081869 -38 34 C-37.34 33.01 -36.68 32.02 -36 31 C-35.40995178 31.22324448 -34.81990356 31.44648895 -34.2119751 31.67649841 C-31.98017605 32.25073264 -31.98017605 32.25073264 -30.30413818 30.90541077 C-29.74454407 30.33471359 -29.18494995 29.76401642 -28.60839844 29.17602539 C-27.9680365 28.5352858 -27.32767456 27.8945462 -26.66790771 27.23439026 C-25.98859192 26.52926804 -25.30927612 25.82414581 -24.609375 25.09765625 C-23.90476135 24.38596786 -23.20014771 23.67427948 -22.47418213 22.94102478 C-20.22082068 20.65961896 -17.98543094 18.36146474 -15.75 16.0625 C-14.22771294 14.5151434 -12.7042892 12.96890417 -11.1796875 11.42382812 C-7.43982668 7.62876458 -3.71458742 3.81979558 0 0 Z " fill="#170D26" transform="translate(571,493)"/>
<path d="M0 0 C0.66 0.33 1.32 0.66 2 1 C-4.52554433 8.39278221 -11.30151923 15.50702497 -18.23828125 22.51171875 C-18.75459799 23.03335917 -19.27091473 23.55499958 -19.80287743 24.09244728 C-22.52114244 26.83712632 -25.24285518 29.57833697 -27.96704102 32.31713867 C-30.21333385 34.57690549 -32.45207452 36.84378599 -34.68481445 39.11694336 C-37.40094857 41.8821971 -40.12897131 44.63515773 -42.8662014 47.37952614 C-43.90269924 48.42274492 -44.93493091 49.47022045 -45.96276283 50.52197838 C-47.39092596 51.98155451 -48.83630533 53.42422545 -50.2824707 54.8659668 C-51.09915726 55.6907402 -51.91584381 56.51551361 -52.75727844 57.36528015 C-55 59 -55 59 -57.29484558 58.75837708 C-58.13889702 58.38298042 -58.13889702 58.38298042 -59 58 C-57.21427748 56.16052663 -55.42197551 54.32842259 -53.625 52.5 C-53.11710937 51.97535156 -52.60921875 51.45070312 -52.0859375 50.91015625 C-50.76167396 49.56846819 -49.38394135 48.28004185 -48 47 C-47.34 47 -46.68 47 -46 47 C-45.7628125 46.43829102 -45.525625 45.87658203 -45.28125 45.29785156 C-43.70680643 42.47417342 -41.78315455 40.52385158 -39.5 38.234375 C-38.613125 37.34492188 -37.72625 36.45546875 -36.8125 35.5390625 C-35.884375 34.61867187 -34.95625 33.69828125 -34 32.75 C-33.071875 31.81414062 -32.14375 30.87828125 -31.1875 29.9140625 C-30.300625 29.02976563 -29.41375 28.14546875 -28.5 27.234375 C-27.27796875 26.01572754 -27.27796875 26.01572754 -26.03125 24.77246094 C-24 23 -24 23 -22 23 C-21.75378906 22.42854248 -21.50757813 21.85708496 -21.25390625 21.26831055 C-19.79201749 18.62376061 -18.07971414 16.83720252 -15.9375 14.70703125 C-15.14085937 13.91232422 -14.34421875 13.11761719 -13.5234375 12.29882812 C-12.69070313 11.47833984 -11.85796875 10.65785156 -11 9.8125 C-10.16726563 8.98041016 -9.33453125 8.14832031 -8.4765625 7.29101562 C-2.28086515 1.14043257 -2.28086515 1.14043257 0 0 Z " fill="#09040E" transform="translate(415,189)"/>
<path d="M0 0 C38.28 0 76.56 0 116 0 C114.68 1.32 113.36 2.64 112 4 C112 3.01 112 2.02 112 1 C75.37 1 38.74 1 1 1 C1 38.62 1 76.24 1 115 C0.67 115 0.34 115 0 115 C0 77.05 0 39.1 0 0 Z " fill="#9B61E5" transform="translate(419,529)"/>
<path d="M0 0 C-2.82079065 2.36374406 -4.85407428 3.42943389 -8.4921875 3.94921875 C-9.35626221 4.07514404 -10.22033691 4.20106934 -11.1105957 4.33081055 C-12.47897583 4.50737183 -12.47897583 4.50737183 -13.875 4.6875 C-14.80723389 4.81487549 -15.73946777 4.94225098 -16.69995117 5.07348633 C-24.17573627 6.03330684 -31.46191602 6.34206432 -39 6 C-39 5.67 -39 5.34 -39 5 C-34.09051871 4.11667395 -29.17928265 3.24416883 -24.26611328 2.3815918 C-22.59534045 2.08670185 -20.92508356 1.78887295 -19.25537109 1.48803711 C-16.85383954 1.05587572 -14.45064474 0.63435302 -12.046875 0.21484375 C-11.30193787 0.07843979 -10.55700073 -0.05796417 -9.78948975 -0.19850159 C-3.3766558 -1.29901028 -3.3766558 -1.29901028 0 0 Z " fill="#120A1D" transform="translate(509,406)"/>
<path d="M0 0 C5.62303757 4.67466337 10.79741554 9.67765667 15.9375 14.875 C16.71673828 15.65875 17.49597656 16.4425 18.29882812 17.25 C20.20154085 19.16438581 22.10186171 21.08108034 24 23 C20.47844036 25.34770643 18.49228157 25.37669614 14.3125 25.625 C13.13300781 25.69976562 11.95351563 25.77453125 10.73828125 25.8515625 C9.83464844 25.90054687 8.93101562 25.94953125 8 26 C8 25.67 8 25.34 8 25 C11.96 24.34 15.92 23.68 20 23 C15.05351504 17.13323877 9.78610842 11.71886244 4.26879883 6.39379883 C2.80961522 4.96531244 1.40011006 3.48643264 0 2 C0 1.34 0 0.68 0 0 Z " fill="#7549B2" transform="translate(591,363)"/>
<path d="M0 0 C0.33 1.32 0.66 2.64 1 4 C-0.32 4.99 -1.64 5.98 -3 7 C-3.33 6.01 -3.66 5.02 -4 4 C-2.68 2.68 -1.36 1.36 0 0 Z " fill="#040207" transform="translate(293,310)"/>
<path d="M0 0 C-1.485 1.485 -1.485 1.485 -3 3 C-2.01 3.66 -1.02 4.32 0 5 C-1.77119803 4.85866501 -3.54195287 4.71176792 -5.3125 4.5625 C-6.29863281 4.48128906 -7.28476562 4.40007812 -8.30078125 4.31640625 C-11 4 -11 4 -14 3 C-14 2.34 -14 1.68 -14 1 C-12.41913952 0.63495397 -10.83516093 0.28339494 -9.25 -0.0625 C-8.36828125 -0.25972656 -7.4865625 -0.45695312 -6.578125 -0.66015625 C-4.01320972 -0.99825872 -2.42908361 -0.81158635 0 0 Z " fill="#24123C" transform="translate(452,416)"/>
<path d="M0 0 C0.99 0.33 1.98 0.66 3 1 C2.360625 1.556875 1.72125 2.11375 1.0625 2.6875 C-1.19680987 5.22066561 -1.63149047 6.68341424 -2 10 C-3.175625 10.2165625 -3.175625 10.2165625 -4.375 10.4375 C-6.96421018 10.87798925 -6.96421018 10.87798925 -9 12 C-8.45015228 8.12488273 -6.72444669 6.40423494 -3.9375 3.75 C-3.20402344 3.04359375 -2.47054688 2.3371875 -1.71484375 1.609375 C-1.14894531 1.07828125 -0.58304687 0.5471875 0 0 Z " fill="#100919" transform="translate(303,301)"/>
<path d="M0 0 C10.89 0 21.78 0 33 0 C31.68 1.32 30.36 2.64 29 4 C29 3.01 29 2.02 29 1 C19.43 1 9.86 1 0 1 C0 0.67 0 0.34 0 0 Z " fill="#9962E4" transform="translate(502,529)"/>
<path d="M0 0 C2 3 2 3 3 6 C0.69 6.66 -1.62 7.32 -4 8 C-4.66 7.01 -5.32 6.02 -6 5 C-5.01 5 -4.02 5 -3 5 C-2.5359375 4.0409375 -2.5359375 4.0409375 -2.0625 3.0625 C-1 1 -1 1 0 0 Z " fill="#1C0F2E" transform="translate(303,521)"/>
<path d="M0 0 C-2.44579177 2.30925485 -3.59442134 2.99001814 -7.015625 3.07421875 C-8.08296875 2.94660156 -9.1503125 2.81898438 -10.25 2.6875 C-11.32765625 2.56761719 -12.4053125 2.44773437 -13.515625 2.32421875 C-14.33546875 2.21722656 -15.1553125 2.11023438 -16 2 C-16 1.67 -16 1.34 -16 1 C-14.0852312 0.63571223 -12.16807707 0.28394694 -10.25 -0.0625 C-9.18265625 -0.25972656 -8.1153125 -0.45695312 -7.015625 -0.66015625 C-4.25228095 -0.97156937 -2.59053383 -0.8991416 0 0 Z " fill="#190F27" transform="translate(509,406)"/>
<path d="M0 0 C1.32 0.33 2.64 0.66 4 1 C4.33 1.66 4.66 2.32 5 3 C4.278125 3.061875 3.55625 3.12375 2.8125 3.1875 C-0.84657625 4.24456647 -2.49211602 6.20550071 -5 9 C-5.66 8.67 -6.32 8.34 -7 8 C-4.69 5.36 -2.38 2.72 0 0 Z " fill="#8A55D1" transform="translate(536,310)"/>
<path d="M0 0 C2.31 0.33 4.62 0.66 7 1 C6.04578192 2.14926266 5.08647955 3.29430541 4.125 4.4375 C3.59132813 5.07558594 3.05765625 5.71367187 2.5078125 6.37109375 C1 8 1 8 -1 9 C0.33333333 6.33333333 1.66666667 3.66666667 3 1 C2.01 0.67 1.02 0.34 0 0 Z " fill="#6F45A7" transform="translate(608,448)"/>
<path d="M0 0 C2.31 0.33 4.62 0.66 7 1 C7 1.66 7 2.32 7 3 C4.69 3.33 2.38 3.66 0 4 C0 2.68 0 1.36 0 0 Z " fill="#1C0D31" transform="translate(390,416)"/>
</svg>
