<?xml version="1.0" standalone="no"?>
<!DOCTYPE svg PUBLIC "-//W3C//DTD SVG 20010904//EN"
 "http://www.w3.org/TR/2001/REC-SVG-20010904/DTD/svg10.dtd">
<svg version="1.0" xmlns="http://www.w3.org/2000/svg"
 width="1046.000000pt" height="833.000000pt" viewBox="0 0 1046.000000 833.000000"
 preserveAspectRatio="xMidYMid meet">

<g transform="translate(0.000000,833.000000) scale(0.100000,-0.100000)"
fill="#000000" stroke="none">
<path d="M0 4165 l0 -4165 5230 0 5230 0 0 4165 0 4165 -5230 0 -5230 0 0
-4165z m5831 1678 c415 -417 519 -526 517 -545 -1 -14 -9 -24 -18 -24 -8 0
-250 -4 -537 -8 l-523 -8 0 578 0 577 21 -24 c11 -13 254 -259 540 -546z
m-607 -38 c-1 -269 -2 -500 -3 -512 l-1 -23 -561 0 -561 0 559 558 558 557 5
-45 c3 -25 4 -265 4 -535z m-1029 -732 c308 -328 591 -626 779 -822 l81 -83
-40 5 c-22 3 -92 15 -155 27 -158 29 -1104 192 -1421 245 -96 16 -119 23 -119
36 0 9 721 739 730 739 3 0 68 -66 145 -147z m2145 5 c0 -9 3 -9 11 -1 29 29
44 -25 24 -86 -4 -12 -2 -21 4 -21 15 0 14 -57 -1 -64 -10 -5 -10 -7 0 -12 7
-4 12 -27 12 -65 0 -46 -5 -64 -20 -79 -11 -11 -20 -30 -20 -42 0 -19 -2 -20
-11 -8 -9 12 -10 11 -4 -5 12 -34 13 -50 4 -61 -5 -6 -7 -26 -5 -45 3 -19 5
-37 5 -41 2 -15 20 -8 24 10 3 9 5 2 6 -15 1 -19 6 -33 14 -33 8 0 7 -4 -3
-10 -13 -9 -13 -11 0 -20 10 -6 11 -10 3 -10 -7 0 -13 -9 -13 -20 0 -11 6 -20
13 -21 10 0 10 -2 0 -6 -16 -6 -17 -40 -1 -45 6 -2 -3 -10 -20 -17 -18 -8 -32
-19 -32 -26 0 -15 13 -12 -340 -76 -151 -27 -335 -61 -408 -75 -74 -14 -136
-24 -138 -21 -4 4 131 148 689 730 104 108 193 197 198 197 5 0 9 -5 9 -12z
m-1361 -1024 c-46 -47 -88 -91 -94 -98 -5 -6 -57 -61 -115 -121 -144 -151
-268 -282 -446 -470 -83 -88 -178 -189 -212 -225 l-61 -65 -366 365 c-202 202
-364 372 -363 380 3 15 57 29 198 51 141 22 939 158 1195 204 50 9 115 21 145
26 30 5 84 16 120 23 36 8 69 14 74 15 5 0 -29 -38 -75 -85z m556 71 c39 -8
149 -29 245 -45 201 -35 421 -75 498 -91 39 -8 52 -15 52 -28 0 -10 14 -25 33
-34 31 -15 31 -16 7 -17 l-25 -1 25 -10 c20 -8 22 -12 10 -19 -13 -9 -13 -10
0 -10 13 0 13 -1 0 -10 -12 -8 -12 -10 5 -10 20 -1 20 -1 1 -15 -15 -11 -16
-15 -5 -16 11 0 11 -2 0 -6 -11 -5 -11 -7 0 -14 12 -8 11 -11 -1 -19 -13 -9
-13 -10 0 -10 13 0 13 -1 0 -10 -13 -9 -13 -10 0 -10 13 0 13 -1 0 -10 -9 -6
-17 -5 -22 3 -4 6 -10 8 -14 5 -11 -11 -5 -257 6 -279 6 -10 8 -19 4 -19 -4 0
2 -8 12 -17 21 -20 29 -43 15 -43 -6 0 -9 -9 -8 -20 1 -11 6 -20 12 -20 5 0 3
-5 -5 -10 -13 -9 -13 -11 0 -20 13 -9 13 -10 0 -10 -12 0 -13 -2 -1 -9 11 -7
11 -9 0 -14 -12 -4 -11 -7 1 -16 10 -7 11 -11 3 -11 -7 0 -13 -9 -13 -20 0
-11 6 -20 13 -20 8 0 7 -3 -3 -10 -9 -5 -19 -5 -24 0 -4 4 -14 6 -21 4 -9 -4
-777 786 -879 904 -23 27 -17 27 79 7z m805 -1105 c20 -32 23 -28 -576 -631
l-494 -495 0 574 0 575 531 -5 c417 -4 533 -8 539 -18z m-1118 -12 c4 -19 3
-907 -1 -1058 l-1 -45 -555 555 c-305 305 -555 558 -555 562 0 5 249 8 554 8
l554 0 4 -22z"/>
<path d="M6340 4860 c0 -5 5 -10 10 -10 6 0 10 5 10 10 0 6 -4 10 -10 10 -5 0
-10 -4 -10 -10z"/>
<path d="M6340 4830 c0 -5 5 -10 10 -10 6 0 10 5 10 10 0 6 -4 10 -10 10 -5 0
-10 -4 -10 -10z"/>
<path d="M6340 4780 c0 -5 5 -10 10 -10 6 0 10 5 10 10 0 6 -4 10 -10 10 -5 0
-10 -4 -10 -10z"/>
<path d="M6340 3350 c0 -5 5 -10 10 -10 6 0 10 5 10 10 0 6 -4 10 -10 10 -5 0
-10 -4 -10 -10z"/>
<path d="M6338 3253 c7 -3 16 -2 19 1 4 3 -2 6 -13 5 -11 0 -14 -3 -6 -6z"/>
</g>
</svg>
